<?xml version="1.0" encoding="utf-8"?>
<!-- Generator: Adobe Illustrator 15.0.0, SVG Export Plug-In . SVG Version: 6.00 Build 0)  -->
<!DOCTYPE svg PUBLIC "-//W3C//DTD SVG 1.1//EN" "http://www.w3.org/Graphics/SVG/1.1/DTD/svg11.dtd">
<svg version="1.1"
	 id="svg2" inkscape:version="0.46" sodipodi:version="0.32" sodipodi:docbase="C:\Documents and Settings\Ude\desktop" sodipodi:docname="Hamburger.svg" inkscape:output_extension="org.inkscape.output.svg.inkscape" xmlns:inkscape="http://www.inkscape.org/namespaces/inkscape" xmlns:sodipodi="http://sodipodi.sourceforge.net/DTD/sodipodi-0.dtd" xmlns:svg="http://www.w3.org/2000/svg" xmlns:rdf="http://www.w3.org/1999/02/22-rdf-syntax-ns#" xmlns:cc="http://creativecommons.org/ns#" xmlns:dc="http://purl.org/dc/elements/1.1/"
	 xmlns="http://www.w3.org/2000/svg" xmlns:xlink="http://www.w3.org/1999/xlink" x="0px" y="0px" width="50px" height="50px"
	 viewBox="278.563 237.565 50 50" enable-background="new 278.563 237.565 50 50" xml:space="preserve">
<defs>
	
	
		<inkscape:perspective  id="perspective231" sodipodi:type="inkscape:persp3d" inkscape:vp_x="0 : 526.18109 : 1" inkscape:vp_y="0 : 1000 : 0" inkscape:vp_z="744.09448 : 526.18109 : 1" inkscape:persp3d-origin="372.04724 : 350.78739 : 1">
		</inkscape:perspective>
</defs>
<sodipodi:namedview  showgrid="false" inkscape:window-height="544" guidetolerance="10" gridtolerance="10000" bordercolor="#666666" objecttolerance="10" inkscape:current-layer="layer1" inkscape:window-width="800" id="base" borderopacity="1.0" inkscape:pageopacity="0.0" pagecolor="#ffffff" inkscape:window-x="-4" inkscape:pageshadow="2" inkscape:zoom="0.64571429" inkscape:window-y="-4" inkscape:cy="262.5" inkscape:cx="300" inkscape:document-units="px">
	</sodipodi:namedview>
<g id="layer1" transform="translate(-250,-1.6388059)" inkscape:label="Layer 1" inkscape:groupmode="layer">
	<path id="path18772" fill="#D4AA00" d="M531.951,276.05c-2.54,1.629-2.505,5.906-2.497,7.12c0.007,1.226,0.771,1.685,1.303,1.904
		c13.649,5.636,31.51,5.272,45.434,0.313c1.143-0.407,1.554-1.399,1.479-2.454c-0.443-6.228-2.539-7.689-3.924-8.072
		C570.603,273.991,535.117,274.018,531.951,276.05z"/>
	
		<linearGradient id="path22189_1_" gradientUnits="userSpaceOnUse" x1="549.1882" y1="119.0785" x2="549.1085" y2="122.7517" gradientTransform="matrix(2.5 0 0 -2.5 -819.3051 585.4127)">
		<stop  offset="0" style="stop-color:#AA8800"/>
		<stop  offset="1" style="stop-color:#AA8800;stop-opacity:0"/>
	</linearGradient>
	<path id="path22189" fill="url(#path22189_1_)" d="M531.951,276.05c-2.54,1.629-2.505,5.906-2.497,7.12
		c0.007,1.226,0.771,1.685,1.303,1.904c13.649,5.636,31.51,5.272,45.434,0.313c1.143-0.407,1.554-1.399,1.479-2.454
		c-0.443-6.228-2.539-7.689-3.924-8.072C570.603,273.991,535.117,274.018,531.951,276.05z"/>
	<path id="path17783" fill="#803300" d="M531.201,272.777c-1.322,2.073-1.724,4.541,0.199,5.171
		c13.007,4.256,29.334,5.089,43.862,0.081c3.84-1.323,0.475-4.442-0.59-6.029C572.593,268.898,531.798,271.841,531.201,272.777z"/>
	<path id="path15833" fill="#8DD35F" d="M574.451,267.471c4.828,2.674,4.602,5.036,3.338,6.504
		c-2.206,2.563-3.384,0.929-5.365,2.023c-2.497,1.38-3.727-0.129-6.199,1.445c-1.334,0.85-7.106-4.786-6.975-5.348L574.451,267.471z
		"/>
	<path id="path17775" fill="#8DD35F" d="M560.771,270.47c2.384,1.662,7.456,6.592,5.842,6.938c-1.154,0.247-1.981,1.111-3.199,1.494
		c-1.312,0.412-3.047,0.289-5.296-1.097c-2.553-1.573-1.133-6.359-1.133-6.359L560.771,270.47z"/>
	
		<linearGradient id="path21795_1_" gradientUnits="userSpaceOnUse" x1="555.7542" y1="123.6161" x2="555.2863" y2="125.3884" gradientTransform="matrix(2.5 0 0 -2.5 -819.3051 585.4127)">
		<stop  offset="0" style="stop-color:#5AA02C"/>
		<stop  offset="1" style="stop-color:#5AA02C;stop-opacity:0"/>
	</linearGradient>
	<path id="path21795" fill="url(#path21795_1_)" d="M574.451,267.471c4.828,2.674,4.602,5.036,3.338,6.504
		c-2.206,2.563-3.384,0.929-5.365,2.023c-2.497,1.38-3.727-0.129-6.199,1.445c-1.334,0.85-7.106-4.786-6.975-5.348L574.451,267.471z
		"/>
	<path id="path17779" fill="#8DD35F" d="M551.709,270.397c0.298,1.445,0.876,4.453,0.597,6.938c-0.593,5.256-1.845,3.062-3.13,2.638
		c-1.462-0.482-2.035,0.397-2.847,0.307c-0.684-0.076-0.836-0.795-1.222-1.149c-0.318-0.291-0.893-0.24-1.117-0.819
		c-0.616-1.592-2.053-1.188-2.563-3.396c-0.691-2.989-0.537-4.336-0.537-4.336L551.709,270.397z"/>
	<path id="path17781" fill="#8DD35F" d="M545.748,272.854c-2.598,6.133-3.892,4.477-7.124,3.938c-4.408-0.734-3.917,0.068-6.2-0.506
		c-3.898-0.982-4.536-3.725-3.278-5.762c1.224-1.98,5.245-2.982,5.245-2.982C537.012,268.927,547.415,268.304,545.748,272.854z"/>
	<path id="path17777" fill="#8DD35F" d="M556.479,271.77c1.132,2.24,3.194,3.382,3.04,6.576c-0.203,4.196-2.489,1.457-3.905,1.337
		c-0.812-0.069-1.3,1.486-2.802,0.145c-1.334-1.192-2.231-2.565-3.994-3.902c-1.508-1.145-0.536-4.119-0.536-4.119L556.479,271.77z"
		/>
	
		<linearGradient id="path21751_1_" gradientUnits="userSpaceOnUse" x1="547.302" y1="124.5721" x2="545.05" y2="123.2762" gradientTransform="matrix(2.5 0 0 -2.5 -819.3051 585.4127)">
		<stop  offset="0" style="stop-color:#5AA02C"/>
		<stop  offset="1" style="stop-color:#5AA02C;stop-opacity:0"/>
	</linearGradient>
	<path id="path21751" fill="url(#path21751_1_)" d="M551.709,270.397c0.298,1.445,0.876,4.453,0.597,6.938
		c-0.593,5.256-1.845,3.062-3.13,2.638c-1.462-0.482-2.035,0.397-2.847,0.307c-0.684-0.076-0.836-0.795-1.222-1.149
		c-0.318-0.291-0.893-0.24-1.117-0.819c-0.616-1.592-2.053-1.188-2.563-3.396c-0.691-2.989-0.537-4.336-0.537-4.336L551.709,270.397
		z"/>
	<path id="path19783" fill="#8DD35F" d="M535.585,266.603c-5.817,3.015-6.566,4.348-5.835,5.374c1.51,2.117,4.091,0.578,5.358,0.254
		c2.088-0.533,3.244-0.104,4.887-0.048c1.06,0.037,4.378-1.451,3.751-4.738C542.669,265.809,537.528,265.873,535.585,266.603z"/>
	
		<linearGradient id="path19765_1_" gradientUnits="userSpaceOnUse" x1="543.6223" y1="125.6639" x2="541.1575" y2="124.1098" gradientTransform="matrix(2.5 0 0 -2.5 -819.3051 585.4127)">
		<stop  offset="0" style="stop-color:#5AA02C"/>
		<stop  offset="1" style="stop-color:#5AA02C;stop-opacity:0"/>
	</linearGradient>
	<path id="path19765" fill="url(#path19765_1_)" d="M545.748,272.854c-2.598,6.133-3.892,4.477-7.124,3.938
		c-4.408-0.734-3.917,0.068-6.2-0.506c-3.898-0.982-4.536-3.725-3.278-5.762c1.224-1.98,5.245-2.982,5.245-2.982
		C537.012,268.927,547.415,268.304,545.748,272.854z"/>
	<path id="path21793" fill="#8DD35F" d="M561.269,269.853c2.285,2.092,5.13,3.295,7.412,2.697c2.046-0.537,4.547,4.157,7.173,2.413
		c5.062-3.364-2.276-9.3-2.276-9.3C569.447,264.437,561.185,269.956,561.269,269.853z"/>
	<path id="path19759" fill="#87DE87" d="M577.247,264.641c0.126,3.526-6.365,2.402-6.365,2.402v0.051
		C570.882,267.095,573.917,262.291,577.247,264.641z"/>
	
		<linearGradient id="path21805_1_" gradientUnits="userSpaceOnUse" x1="551.2659" y1="125.3339" x2="558.5726" y2="126.1751" gradientTransform="matrix(2.5 0 0 -2.5 -819.3051 585.4127)">
		<stop  offset="0" style="stop-color:#5AA02C"/>
		<stop  offset="1" style="stop-color:#5AA02C;stop-opacity:0"/>
	</linearGradient>
	<path id="path21805" fill="url(#path21805_1_)" d="M561.269,269.853c2.285,2.092,5.13,3.295,7.412,2.697
		c2.046-0.537,4.547,4.157,7.173,2.413c5.062-3.364-2.276-9.3-2.276-9.3C569.447,264.437,561.185,269.956,561.269,269.853z"/>
	
		<linearGradient id="path21723_1_" gradientUnits="userSpaceOnUse" x1="542.6833" y1="125.2294" x2="542.1271" y2="127.3132" gradientTransform="matrix(2.5 0 0 -2.5 -819.3051 585.4127)">
		<stop  offset="0" style="stop-color:#5AA02C"/>
		<stop  offset="1" style="stop-color:#5AA02C;stop-opacity:0"/>
	</linearGradient>
	<path id="path21723" fill="url(#path21723_1_)" d="M535.585,266.603c-5.817,3.015-6.566,4.348-5.835,5.374
		c1.51,2.117,4.091,0.578,5.358,0.254c2.088-0.533,3.244-0.104,4.887-0.048c1.06,0.037,4.378-1.451,3.751-4.738
		C542.669,265.809,537.528,265.873,535.585,266.603z"/>
	
		<linearGradient id="path21763_1_" gradientUnits="userSpaceOnUse" x1="551.0813" y1="125.3055" x2="546.4005" y2="121.4195" gradientTransform="matrix(2.5 0 0 -2.5 -819.3051 585.4127)">
		<stop  offset="0" style="stop-color:#5AA02C"/>
		<stop  offset="1" style="stop-color:#5AA02C;stop-opacity:0"/>
	</linearGradient>
	<path id="path21763" fill="url(#path21763_1_)" d="M556.479,271.77c1.132,2.24,3.194,3.382,3.04,6.576
		c-0.203,4.196-2.489,1.457-3.905,1.337c-0.812-0.069-1.3,1.486-2.802,0.145c-1.334-1.192-2.231-2.565-3.994-3.902
		c-1.508-1.145-0.536-4.119-0.536-4.119L556.479,271.77z"/>
	
		<linearGradient id="path21783_1_" gradientUnits="userSpaceOnUse" x1="553.594" y1="124.5795" x2="549.6199" y2="123.5058" gradientTransform="matrix(2.5 0 0 -2.5 -819.3051 585.4127)">
		<stop  offset="0" style="stop-color:#5AA02C"/>
		<stop  offset="1" style="stop-color:#5AA02C;stop-opacity:0"/>
	</linearGradient>
	<path id="path21783" fill="url(#path21783_1_)" d="M560.771,270.47c2.384,1.662,7.456,6.592,5.842,6.938
		c-1.154,0.247-1.981,1.111-3.199,1.494c-1.312,0.412-3.047,0.289-5.296-1.097c-2.553-1.573-1.133-6.359-1.133-6.359L560.771,270.47
		z"/>
	<path id="path19763" fill="#AA4400" d="M576.661,266.139c-0.188,5.039-10.642,6.851-22.361,7.018
		c-11.927,0.17-25.112-1.398-23.837-7.12C551.688,258.074,576.641,266.147,576.661,266.139z"/>
	<path id="path22259" fill="#D35F5F" d="M531.114,264.279c-0.188,0.121,0.06,0.971,0.06,1.445c0,0.582,0.071,1.136,0.179,1.662
		c0.206,0.997,0.788-0.913,0.834-1.084c0.153-0.557,0.06-1.124,0.06-0.072c0,0.509-0.119,1.021-0.119,1.59
		c0,0.2,0.947-0.901,1.013-1.301c0.041-0.247,0.128-0.479,0.179-0.723c0.029-0.143-0.198,0.919-0.06,1.59
		c0.14,0.677,0.593,0.074,0.835-0.072c0.069-0.042,0-1.081,0-1.229c0-0.568,0.433-0.503,0.536,0c0.098,0.476,0,1.166,0,1.662
		c0,0.823,0.867,0.25,1.133-0.072c0.326-0.396-0.095-0.894-0.179-1.301c-0.202-0.979,0.088-0.726,0.357-0.072
		c0.124,0.3,0.06,0.749,0.06,1.084c0,0.485-0.081,0.752,0.298,0.867c0.392,0.118,0.298-1.159,0.298-1.373
		c0-0.404,0.179-1.266,0.179-0.434c0,0.546-0.043,1.164,0.06,1.662c0.176,0.852,0.09,0.679,0.895,0.289
		c0.387-0.188,0.238-1.152,0.238-1.59c0-0.495-0.025-1.425,0.179-0.434c0.02,0.096,0.04,0.192,0.06,0.289
		c0.098,0.476,0.179,0.742,0.179,1.229c0,0.479-0.179,0.679-0.179,1.156c0,0.239,1.014-0.08,1.014-0.65
		c0-0.526-0.238-0.882-0.238-1.518c0-0.77,0.477,0.083,0.477,0.506c0,0.462,0,0.887,0,1.373c0,0.723,0.658,0.526,0.894,0.145
		c0.134-0.216-0.06-0.981-0.06-1.229c0-0.635,0.175-0.808,0.417-0.072c0.145,0.438,0.087,0.732,0,1.156
		c-0.132,0.642-0.003,0.867,0.417,0.867c0.396,0,0.298-1.281,0.298-1.59c0-0.632-0.028-1.508,0.596-0.939
		c0.259,0.235,0.119,1.431,0.119,1.807c0,0.497-0.123,0.829,0.238,0.939c0.535,0.162,0.347-1.427,0.298-1.662
		c-0.102-0.495-0.354-1.414,0.298-0.939c0.439,0.319,0.341,1.235,0.239,1.734c-0.089,0.432,0,1.076,0,1.518
		c0,0.802,0.352,0.685,0.477-0.072c0.083-0.5-0.032-1.109,0.06-1.662c0.081-0.487,0.109-1.162,0.477-0.939
		c0.119,0.072,0,1.637,0,1.951c0,0.643,0.159,1.324,0.715,0.65c0.238-0.289-0.238-1.464-0.238-1.879
		c0-1.097,0.319-0.718,0.536,0.072c0.185,0.673,0,1.42,0,2.096c0,0.727,0.461,0.617,0.715,0c0.18-0.436,0-1.564,0-2.096
		c0-0.992,0.423,0.233,0.537,0.578c0.181,0.547-0.092,0.828,0.179,1.156c0.611,0.74,0.775-0.963,0.775-1.301
		c0-0.951,0.498-0.97,0.835-0.289c0.082,0.166,0.159,0.337,0.238,0.506c0.216,0.458,0.08,1.107,0.179,1.589
		c0.133,0.646,0.954-0.734,0.954-1.228c0-0.511-0.141-1.935,0.477-1.373c0.09,0.081,0.159,0.192,0.239,0.289
		c0.368,0.446,0.2,1.407,0.298,1.879c0.099,0.479,0.511,0.377,0.774,0.217c0.071-0.043-0.119-2.118-0.119-2.457
		c0-0.349,0.418,1.091,0.418,1.59c0,0.958,0.248,0.782,0.655,0.289c0.214-0.259,0.06-1.425,0.06-1.807
		c0-0.153,0.266,0.859,0.537,1.518c0.264,0.641,0.135,0.726,0.774,0.145c0.551-0.501-0.686-0.491,1.133-1.373
		c0.856-0.415,0.878-0.243,1.014-1.229c0.041-0.3,0.536,0.219,0.536,0.578c0,0.604,0.067,1.121,0.179,1.662
		c0.124,0.601,0.869,1.549,1.21,1.136c0.546-0.661,0.107-2.409-0.018-3.015c-0.101-0.49,0.044-1.12,0.179-1.445
		c0.302-0.732,0.895,1.116,0.895,1.445c0,0.192,0,0.845,0,1.038c0,0.659,0.239,1.405,0.655,1.531
		c0.489,0.148,0.597-1.289,0.597-1.774c0-0.522-0.149-0.977-0.06-1.518c0.073-0.448,0.477,0.664,0.477,0.939
		c0,0.495,0.016,2.031,0.238,2.301c0.417,0.506,0.477-2.004,0.477-2.229c0-0.484,0.079-1.063,0.239-0.289
		c0.148,0.723-0.027,2.081,0.34,2.526c0.392,0.475,0.408-1.726,0.554-2.165c0.194-0.59-0.126-1.004,0.179-1.373
		c0.332-0.403,0.299,0.915,0.299,1.084c0,0.361,0,0.723,0,1.084c0,0.395,0.417-0.193,0.417-0.795c0-0.42-0.06-0.849-0.06-1.301
		c0-0.507,0.06,1.011,0.06,1.518c0,0.481,0,0.963,0,1.445c0,0.526,0.715,0.321,0.715-0.217c0-0.723,0-1.445,0-2.168
		c0-0.586,0.165-1.262,0.298-0.289c0.082,0.596-0.059,1.01-0.059,1.59c0,0.42-0.061,0.866-0.061,1.301
		c0,0.604,0.271,0.739,0.656,0.506c0.111-0.068-0.119-1.503-0.119-1.734c0-0.606,0.118-1.154,0.238-1.734
		c0.186-0.901,0.148,0.176,0.238,0.723c0.088,0.53,0.061,0.867,0.238,1.301c0.204,0.493,0.179-1.046,0.179-1.301
		c0-0.361,0-0.723,0-1.084c0-0.098,0.418,0.709,0.418,1.59c0,0.57-0.053,1.191,0.06,1.734c0.186,0.9,0.495,0.514,0.596-0.217
		c0.059-0.423-0.179-1.264-0.179-1.807c0-0.765,0.357-1.668,0.357-0.289c0,0.567-0.113,1.097,0.06,1.518
		c0.285,0.689,0.478-0.298,0.478-0.65c0-0.838,0.048-1.554,0.298-2.312c0.103-0.311,0.238,1.131,0.238,2.023
		c0,0.61,0.054,0.785,0.238,1.084c0.122,0.196,0.199-1.614,0.179-1.734c-0.062-0.379-0.018-0.782,0.06-1.156
		c0.02-0.092,0.245,0.825,0.418,1.662c0.133,0.647-0.034,0.867,0.596,0.867c0.714,0,0.141-1.538,0-1.879
		c-0.195-0.474,0.146-2.26,0.656-1.229c0.312,0.63,0.357,1.575,0.357,2.312c0,0.899,0.054,0.979,0.715,0.578
		c0.658-0.398-0.179-1.842-0.179-2.457c0-1.069-0.09-1.76,0.597-0.65c0.19,0.309,0,1.721,0,2.168c0,0.598-0.04,1.133,0.179,1.662
		c0.224,0.541,0.366,0.623,0.596-0.072c0.089-0.269-0.298-1.928-0.298-2.385c0-0.37-0.137-2.355,0.179-1.59
		c0.242,0.586,0.071,1.502,0.179,2.023c0.142,0.685,0.478,0.424,0.478-0.217c0-0.121,0-0.241,0-0.361
		c0-0.591-0.255-1.441-0.18-1.807c0.028-0.135,0.751,0.944,0.597,1.879c-0.091,0.549,0.233-0.031,0.119-0.723
		c-0.08-0.486,0-1.098,0-1.59c0-1.376,0.737,0.686,0.835,1.156c0.142,0.689,0.298,1.06,0.298,1.734c0,0.672,0.181,0.932,0.417,0.217
		c0.129-0.39,0.06-1.096,0.06-1.518c0-0.499,0.06-0.962,0.06-1.445c0-0.087,0.298,0.867,0.477,1.734
		c0.112,0.54,0.358,0.815,0.358,0.072c0-0.434,0-0.867,0-1.301c0-0.405,0.018-0.751-0.119-1.084
		c-0.127-0.306-0.774-1.21-0.954-1.301C561.488,256.071,543.346,256.421,531.114,264.279z"/>
	<path id="path19751" fill="#8DD35F" d="M560.027,266.626c3.414,3.066,11.719-2.503,11.719-2.503
		C568.073,261.437,562.257,264.653,560.027,266.626z"/>
	<path id="path19761" fill="#8DD35F" d="M569.615,266.788c-1.307,2.044-10.074,0.357-10.074,0.357S566.833,263.16,569.615,266.788z"
		/>
	<path id="path19757" fill="#8DD35F" d="M575.928,261.947c2.311,1.406,2.146,3.525,1.18,4.029c-1.666,0.866-5.731,0.007-5.731,0.007
		L575.928,261.947z"/>
	
		<linearGradient id="path21869_1_" gradientUnits="userSpaceOnUse" x1="556.803" y1="128.0555" x2="558.5721" y2="128.657" gradientTransform="matrix(2.5 0 0 -2.5 -819.3051 585.4127)">
		<stop  offset="0" style="stop-color:#5AA02C"/>
		<stop  offset="1" style="stop-color:#5AA02C;stop-opacity:0"/>
	</linearGradient>
	<path id="path21869" fill="url(#path21869_1_)" d="M575.928,261.947c2.311,1.406,2.146,3.525,1.18,4.029
		c-1.666,0.866-5.731,0.007-5.731,0.007L575.928,261.947z"/>
	<path id="path18778" fill="#8DD35F" d="M576.064,262.138c1.509,1.355,0.892,2.021-0.127,2.343
		c-1.286,0.407-3.287,0.263-3.287,0.263L576.064,262.138z"/>
	
		<linearGradient id="path21863_1_" gradientUnits="userSpaceOnUse" x1="556.9075" y1="128.9764" x2="558.1757" y2="128.549" gradientTransform="matrix(2.5 0 0 -2.5 -819.3051 585.4127)">
		<stop  offset="0" style="stop-color:#5AA02C"/>
		<stop  offset="1" style="stop-color:#5AA02C;stop-opacity:0"/>
	</linearGradient>
	<path id="path21863" fill="url(#path21863_1_)" d="M576.064,262.138c1.509,1.355,0.892,2.021-0.127,2.343
		c-1.286,0.407-3.287,0.263-3.287,0.263L576.064,262.138z"/>
	<path id="path19749" fill="#8DD35F" d="M563.376,266.099c0.833,1.877-0.681,2.384-1.824,3.443
		c-1.222,1.131-4.623-0.478-4.667-1.758C556.813,265.732,562.707,264.592,563.376,266.099z"/>
	
		<linearGradient id="path21917_1_" gradientUnits="userSpaceOnUse" x1="550.427" y1="128.0048" x2="553.1391" y2="126.5274" gradientTransform="matrix(2.5 0 0 -2.5 -819.3051 585.4127)">
		<stop  offset="0" style="stop-color:#5AA02C"/>
		<stop  offset="1" style="stop-color:#5AA02C;stop-opacity:0"/>
	</linearGradient>
	<path id="path21917" fill="url(#path21917_1_)" d="M563.376,266.099c0.833,1.877-0.681,2.384-1.824,3.443
		c-1.222,1.131-4.623-0.478-4.667-1.758C556.813,265.732,562.707,264.592,563.376,266.099z"/>
	<path id="path21867" fill="#FFF900" d="M560.027,266.626c3.414,3.066,11.719-2.503,11.719-2.503
		C568.073,261.437,562.257,264.653,560.027,266.626z"/>
	<path id="path14862" fill="#8DD35F" d="M532.962,261.401c-7.789,4.321,0.802,6.241,3.04,5.419c0.841-0.308,2.03-0.071,3.588,0.872
		c0.969,0.586,2.072-0.402,3.568,0.697c1.836,1.349,4.624,0.501,4.646-2.437C547.852,259.785,533.038,261.358,532.962,261.401z"/>
	
		<linearGradient id="path21997_1_" gradientUnits="userSpaceOnUse" x1="540.0081" y1="128.1244" x2="546.8439" y2="128.1244" gradientTransform="matrix(2.5 0 0 -2.5 -819.3051 585.4127)">
		<stop  offset="0" style="stop-color:#5AA02C"/>
		<stop  offset="1" style="stop-color:#5AA02C;stop-opacity:0"/>
	</linearGradient>
	<path id="path21997" fill="url(#path21997_1_)" d="M532.962,261.401c-7.789,4.321,0.802,6.241,3.04,5.419
		c0.841-0.308,2.03-0.071,3.588,0.872c0.969,0.586,2.072-0.402,3.568,0.697c1.836,1.349,4.624,0.501,4.646-2.437
		C547.852,259.785,533.038,261.358,532.962,261.401z"/>
	<path id="path8067" fill="#FFE680" d="M575.527,257.858l-42.388,0.076l18.733,16.703L575.527,257.858z M557.643,266.323
		c1.001,0,1.812,0.323,1.812,0.718c0,0.396-0.812,0.719-1.812,0.719c-1,0-1.812-0.323-1.812-0.719
		C555.831,266.646,556.643,266.323,557.643,266.323z M549.169,268.469c0.954,0,1.728,0.188,1.728,0.414s-0.774,0.406-1.728,0.406
		c-0.954,0-1.729-0.181-1.729-0.406S548.215,268.469,549.169,268.469z M554.612,269.137c0.768,0,1.387,0.18,1.387,0.405
		s-0.619,0.414-1.387,0.414s-1.394-0.188-1.394-0.414S553.844,269.137,554.612,269.137z"/>
	<path id="path7096" fill="#FFCC00" d="M576.001,257.79l-41.134,0.354l16.922,15.073l0.069,0.929l0.104-0.938
		c0,0,2.652-2.309,8.203-5.542c0.297-0.173,0.603-0.353,0.92-0.541C566.941,263.655,576.001,257.79,576.001,257.79z
		 M557.553,265.478c1.021,0,1.847,0.36,1.847,0.803s-0.825,0.803-1.847,0.803s-1.854-0.36-1.854-0.803
		S556.531,265.478,557.553,265.478z M549.12,267.675c0.925,0,1.672,0.253,1.672,0.558c0,0.306-0.748,0.55-1.672,0.55
		s-1.68-0.244-1.68-0.55C547.44,267.928,548.195,267.675,549.12,267.675z M554.57,268.359c0.745,0,1.353,0.252,1.353,0.558
		c0,0.307-0.607,0.558-1.353,0.558c-0.744,0-1.345-0.251-1.345-0.558C553.225,268.611,553.825,268.359,554.57,268.359z"/>
	<path id="path3218" fill="#D40000" d="M537.34,255.043c-6.407,0-7.065,3.42-6.985,5.132c0.049,1.063,0.573,1.301,0.419,2.384
		c-0.542,3.82,0.446,3.759,1.019,2.745c0.439-0.777-0.038-1.338,0.199-1.715c0.5-0.315,2.57,0.437,2.189,1.14
		c-0.459,0.848-0.298,1.573,0.092,1.786c0.528,0.289,0.834-1.467,0.834-1.467c1.156-0.2-0.289,2.273-0.335,3.319
		c-0.156,3.525,2.875,2.533,2.805,0.549c-0.053-1.499-0.544-2.797-0.175-3.288c0.63-0.838,0.097,1.526,0.557,2.992
		c0.696,2.216,1.385,0.363,1.385,0.363c0.205-1.24-0.472-2.208-0.655-2.733c-0.112-0.323-0.039-0.479,0.54-0.43
		c1.715,0.147,1.308,1.596,0.211,3.357c-0.925,1.485-0.833,2.742-0.161,2.773c0.464,0.021,1.062-1.279,1.453-2.663
		c0.42-1.486,0.414-3.204,0.843-3.081c0.622,0.178-0.075,0.887-0.105,2.023c-0.055,2.089,1.285,1.143,1.405,0.503
		c0.238-1.261-1.098-2.591,1.51-2.373c7.596,0.634,21.9-1.035,28.118-6.099c2.667-2.172,2.829-4.353,2.829-4.353L537.34,255.043z"/>
	<path id="path13891" fill="#FFE680" d="M575.882,261.761l-11.688,0.363l6.503,8.524L575.882,261.761z M568.752,264.735
		c0.456,0,0.823,0.174,0.823,0.389c0,0.214-0.367,0.388-0.823,0.388c-0.455,0-0.829-0.174-0.829-0.388
		S568.297,264.735,568.752,264.735z M571.533,264.761c0.398,0,0.718,0.174,0.718,0.388c0,0.215-0.319,0.389-0.718,0.389
		s-0.725-0.174-0.725-0.389C570.809,264.934,571.135,264.761,571.533,264.761z"/>
	<path id="path16804" fill="#8DD35F" d="M575.042,258.478c1.353,1.292,2.549,1.898,2.364,3.5c-0.208,1.793-2.72,1.598-4.673,0.468
		c-2.505-1.451-4.552-4.243-4.552-4.243L575.042,258.478z"/>
	<path id="path12920" fill="#FFCC00" d="M564.076,261.111l6.258,8.093l0.3,0.87l-0.056-1.09l5.004-7.874H564.076z M568.732,264.287
		c0.441,0,0.795,0.248,0.795,0.558c0,0.311-0.354,0.566-0.795,0.566s-0.802-0.256-0.802-0.566
		C567.93,264.535,568.29,264.287,568.732,264.287z M571.513,264.38c0.373,0,0.676,0.163,0.676,0.363c0,0.2-0.303,0.363-0.676,0.363
		c-0.374,0-0.677-0.163-0.677-0.363C570.836,264.543,571.139,264.38,571.513,264.38z"/>
	
		<linearGradient id="path21859_1_" gradientUnits="userSpaceOnUse" x1="555.9758" y1="129.6166" x2="558.573" y2="130.6645" gradientTransform="matrix(2.5 0 0 -2.5 -819.3051 585.4127)">
		<stop  offset="0" style="stop-color:#5AA02C"/>
		<stop  offset="1" style="stop-color:#5AA02C;stop-opacity:0"/>
	</linearGradient>
	<path id="path21859" fill="url(#path21859_1_)" d="M575.042,258.478c1.353,1.292,2.549,1.898,2.364,3.5
		c-0.208,1.793-2.72,1.598-4.673,0.468c-2.505-1.451-4.552-4.243-4.552-4.243L575.042,258.478z"/>
	<path id="path18774" fill="#8DD35F" d="M565.737,260.861c0.422,3.117,3.487,2.402,5.143,2.401c1.041,0,3.33,1.175,5.733-0.715
		C573.122,258.022,565.864,260.809,565.737,260.861z"/>
	
		<linearGradient id="path21861_1_" gradientUnits="userSpaceOnUse" x1="554.7639" y1="128.9447" x2="557.3694" y2="129.8111" gradientTransform="matrix(2.5 0 0 -2.5 -819.3051 585.4127)">
		<stop  offset="0" style="stop-color:#5AA02C"/>
		<stop  offset="1" style="stop-color:#5AA02C;stop-opacity:0"/>
	</linearGradient>
	<path id="path21861" fill="url(#path21861_1_)" d="M565.737,260.861c0.422,3.117,3.487,2.402,5.143,2.401
		c1.041,0,3.33,1.175,5.733-0.715C573.122,258.022,565.864,260.809,565.737,260.861z"/>
	<path id="path2247" sodipodi:nodetypes="czsszsc" fill="#D4AA00" d="M529.403,257.095c-0.844-11.167,11.848-17.925,24.693-17.891
		c12.655,0.034,24.375,8.363,23.428,17.891c-0.119,1.192-0.265,1.657-1.492,2.19c-8.425,3.66-11.86,5.133-21.936,4.984
		c-10.265-0.151-15.831-0.6-23.576-4.984C530.15,259.076,529.505,258.443,529.403,257.095z"/>
	
		<radialGradient id="path21937_1_" cx="497.5266" cy="45.0106" r="12.4919" gradientTransform="matrix(0.223 0 0 -0.0402 431.092 266.7714)" gradientUnits="userSpaceOnUse">
		<stop  offset="0" style="stop-color:#FFFFFF"/>
		<stop  offset="1" style="stop-color:#FFFFFF;stop-opacity:0"/>
	</radialGradient>
	<path id="path21937" fill="url(#path21937_1_)" d="M539.281,264.58c0.143-0.333,1.211,0.477,2.597,0.51
		c1.245,0.029,2.947,0.067,2.947,0.067C542.261,265.953,539.188,264.796,539.281,264.58z"/>
	
		<radialGradient id="path21939_1_" cx="460.7986" cy="145.1302" r="7.6827" gradientTransform="matrix(0.2212 0 0 -0.731 431.8346 368.1927)" gradientUnits="userSpaceOnUse">
		<stop  offset="0" style="stop-color:#FFFFFF"/>
		<stop  offset="1" style="stop-color:#FFFFFF;stop-opacity:0"/>
	</radialGradient>
	<path id="path21939" fill="url(#path21939_1_)" d="M531.918,260.823c1.333,0.912,1.609,1.207,2.191,1.69
		c0.706,0.586,1.356,0.767,1.356,0.767C534.094,263.569,531.978,260.823,531.918,260.823z"/>
	
		<radialGradient id="path21941_1_" cx="448.0037" cy="141.8358" r="1.061" gradientTransform="matrix(0.223 0 0 -2.4009 431.0959 604.5021)" gradientUnits="userSpaceOnUse">
		<stop  offset="0" style="stop-color:#FFFFFF"/>
		<stop  offset="1" style="stop-color:#FFFFFF;stop-opacity:0"/>
	</radialGradient>
	<path id="path21941" fill="url(#path21941_1_)" d="M531.114,262.268c-0.655,1.373-0.119,3.396-0.119,3.396
		C531.352,262.918,531.233,262.268,531.114,262.268z"/>
	
		<radialGradient id="path21943_1_" cx="466.8718" cy="124.5018" r="2.0455" gradientTransform="matrix(0.223 0.0067 0.0292 -1.4217 427.4206 442.5307)" gradientUnits="userSpaceOnUse">
		<stop  offset="0" style="stop-color:#FFFFFF"/>
		<stop  offset="1" style="stop-color:#FFFFFF;stop-opacity:0"/>
	</radialGradient>
	<path id="path21943" fill="url(#path21943_1_)" d="M535.704,266.17c-1.789,3.18,0.119,4.336,0.119,4.336
		C534.482,268.663,535.763,266.17,535.704,266.17z"/>
	
		<radialGradient id="path21945_1_" cx="486.8684" cy="115.1552" r="3.3565" gradientTransform="matrix(0.223 0 0 -0.5218 431.092 329.7273)" gradientUnits="userSpaceOnUse">
		<stop  offset="0" style="stop-color:#FFFFFF"/>
		<stop  offset="1" style="stop-color:#FFFFFF;stop-opacity:0"/>
	</radialGradient>
	<path id="path21945" fill="url(#path21945_1_)" d="M540.376,267.904c-1.609,2.023-1.431,3.469-1.431,3.469
		C539.75,269.241,540.585,268.193,540.376,267.904z"/>
	
		<radialGradient id="path21947_1_" cx="477.3669" cy="124.9022" r="1.4574" gradientTransform="matrix(0.2202 -0.0432 -0.2135 -1.5989 459.7827 488.3338)" gradientUnits="userSpaceOnUse">
		<stop  offset="0" style="stop-color:#FFFFFF"/>
		<stop  offset="1" style="stop-color:#FFFFFF;stop-opacity:0"/>
	</radialGradient>
	<path id="path21947" fill="url(#path21947_1_)" d="M538.052,266.423c-0.507,1.554,0.477,3.18,0.477,3.18
		C538.2,267.832,538.23,266.892,538.052,266.423z"/>
	
		<radialGradient id="path21949_1_" cx="468.1882" cy="138.5145" r="1.05" gradientTransform="matrix(0.2026 0.066 0.2097 -0.9464 410.4652 365.4229)" gradientUnits="userSpaceOnUse">
		<stop  offset="0" style="stop-color:#FFFFFF"/>
		<stop  offset="1" style="stop-color:#FFFFFF;stop-opacity:0"/>
	</radialGradient>
	<path id="path21949" fill="url(#path21949_1_)" d="M534.564,264.219c-0.775,1.517-0.268,1.987-0.268,1.987
		C534.385,265.303,534.624,264.219,534.564,264.219z"/>
	
		<radialGradient id="path21951_1_" cx="496.7815" cy="124.2318" r="1.0783" gradientTransform="matrix(0.223 0 0 -1.0559 431.092 399.3546)" gradientUnits="userSpaceOnUse">
		<stop  offset="0" style="stop-color:#FFFFFF"/>
		<stop  offset="1" style="stop-color:#FFFFFF;stop-opacity:0"/>
	</radialGradient>
	<path id="path21951" fill="url(#path21951_1_)" d="M541.874,267.062c0,0.939,0.238,2.24,0.238,2.24
		C541.218,269.23,541.933,266.954,541.874,267.062z"/>
	
		<linearGradient id="path3374_1_" gradientUnits="userSpaceOnUse" x1="803.6711" y1="262.2054" x2="803.2961" y2="283.2875" gradientTransform="matrix(1 0 0 -1 -250.0552 526.4978)">
		<stop  offset="0" style="stop-color:#AA8800"/>
		<stop  offset="1" style="stop-color:#AA8800;stop-opacity:0"/>
	</linearGradient>
	<path id="path3374" sodipodi:nodetypes="czsszsc" fill="url(#path3374_1_)" d="M529.403,257.095
		c-0.844-11.167,11.848-17.925,24.693-17.891c12.655,0.034,24.375,8.363,23.428,17.891c-0.119,1.192-0.265,1.657-1.492,2.19
		c-8.425,3.66-11.86,5.133-21.936,4.984c-10.265-0.151-15.831-0.6-23.576-4.984C530.15,259.076,529.505,258.443,529.403,257.095z"/>
	
		<radialGradient id="path3394_1_" cx="771.4377" cy="435.4569" r="270.2351" gradientTransform="matrix(0.1203 0 0 -0.0507 460.6912 268.7211)" gradientUnits="userSpaceOnUse">
		<stop  offset="0" style="stop-color:#FFEEAA"/>
		<stop  offset="1" style="stop-color:#FFEEAA;stop-opacity:0"/>
	</radialGradient>
	<path id="path3394" sodipodi:nodetypes="czsszsc" fill="url(#path3394_1_)" d="M529.403,257.095
		c-0.844-11.167,11.848-17.925,24.693-17.891c12.655,0.034,24.375,8.363,23.428,17.891c-0.119,1.192-0.265,1.657-1.492,2.19
		c-8.425,3.66-11.86,5.133-21.936,4.984c-10.265-0.151-15.831-0.6-23.576-4.984C530.15,259.076,529.505,258.443,529.403,257.095z"/>
	<path id="path22007" fill="#FF7F2A" d="M542.613,246.438c0.208,0.407-0.065,1.07-0.61,1.48s-1.157,0.413-1.365,0.006
		c-0.208-0.407,0.065-1.07,0.61-1.48C541.793,246.034,542.405,246.031,542.613,246.438z"/>
	<path id="path22009" fill="#FF7F2A" d="M546.043,248.137c-0.207,0.408-0.818,0.408-1.365,0c-0.547-0.408-0.822-1.069-0.615-1.477
		s0.818-0.408,1.365,0S546.25,247.729,546.043,248.137z"/>
	<path id="path22011" fill="#FF7F2A" d="M552.951,250.361c0,0.479-0.521,0.867-1.162,0.867s-1.162-0.389-1.162-0.867
		s0.521-0.867,1.162-0.867S552.951,249.882,552.951,250.361z"/>
	<path id="path22013" fill="#FF7F2A" d="M556.431,247.773c0.158,0.438-0.19,1.047-0.778,1.359s-1.193,0.208-1.352-0.23
		s0.19-1.047,0.778-1.359S556.273,247.334,556.431,247.773z"/>
	<path id="path22015" fill="#FF7F2A" d="M549.283,246.703c0.154,0.441-0.201,1.045-0.792,1.349
		c-0.591,0.303-1.195,0.192-1.349-0.249c-0.154-0.441,0.2-1.045,0.791-1.348S549.129,246.263,549.283,246.703z"/>
	<path id="path22017" fill="#FF7F2A" d="M552.892,245.736c0,0.479-0.521,0.867-1.162,0.867s-1.162-0.388-1.162-0.867
		c0-0.479,0.521-0.867,1.162-0.867S552.892,245.257,552.892,245.736z"/>
	<path id="path22019" fill="#FF7F2A" d="M551.745,242.784c-0.246,0.375-0.854,0.285-1.355-0.199s-0.71-1.182-0.464-1.556
		c0.246-0.374,0.853-0.285,1.354,0.199C551.783,241.712,551.99,242.409,551.745,242.784z"/>
	<path id="path22021" fill="#FF7F2A" d="M547.169,243.857c0,0.479-0.521,0.867-1.162,0.867s-1.163-0.389-1.163-0.867
		c0-0.479,0.521-0.867,1.163-0.867S547.169,243.378,547.169,243.857z"/>
	<path id="path22023" fill="#FF7F2A" d="M549.018,251.659c-0.303,0.307-0.883,0.072-1.294-0.525s-0.5-1.33-0.197-1.637
		c0.303-0.307,0.883-0.072,1.295,0.525C549.233,250.618,549.321,251.351,549.018,251.659z"/>
	<path id="path22025" fill="#FF7F2A" d="M559.531,250.569c-0.099,0.463-0.684,0.681-1.305,0.486s-1.045-0.729-0.946-1.192
		s0.684-0.681,1.305-0.486S559.63,250.106,559.531,250.569z"/>
	<path id="path22027" fill="#FF7F2A" d="M554.96,242.266c0.142,0.446-0.229,1.036-0.827,1.316c-0.598,0.28-1.199,0.146-1.342-0.301
		c-0.143-0.447,0.229-1.037,0.826-1.317C554.216,241.684,554.818,241.819,554.96,242.266z"/>
	<path id="path22029" fill="#FF7F2A" d="M559.261,245.257c0.134,0.45-0.247,1.03-0.85,1.294c-0.604,0.265-1.202,0.114-1.337-0.336
		s0.246-1.03,0.85-1.295S559.126,244.807,559.261,245.257z"/>
	<path id="path22031" fill="#FF7F2A" d="M558.215,242.786c-0.104,0.462-0.691,0.669-1.311,0.462
		c-0.618-0.207-1.035-0.749-0.931-1.21s0.692-0.668,1.311-0.462C557.904,241.782,558.321,242.324,558.215,242.786z"/>
	<path id="path22033" fill="#FF7F2A" d="M565.263,248.218c-0.312,0.295-0.885,0.038-1.28-0.575s-0.464-1.349-0.153-1.644
		c0.311-0.295,0.884-0.038,1.28,0.575C565.505,247.186,565.573,247.923,565.263,248.218z"/>
	<path id="path22035" fill="#FF7F2A" d="M561.986,247.166c0.085,0.467-0.354,0.983-0.981,1.15c-0.626,0.168-1.204-0.075-1.289-0.542
		c-0.085-0.468,0.354-0.983,0.98-1.151C561.323,246.455,561.9,246.699,561.986,247.166z"/>
	<path id="path22037" fill="#FF7F2A" d="M562.578,242.807c0.152,0.441-0.204,1.044-0.796,1.345c-0.592,0.3-1.196,0.186-1.349-0.255
		s0.204-1.044,0.796-1.344C561.822,242.251,562.425,242.365,562.578,242.807z"/>
	
		<linearGradient id="path22109_1_" gradientUnits="userSpaceOnUse" x1="532.655" y1="294.369" x2="532.8038" y2="293.329" gradientTransform="matrix(2.8565 -1.773 -1.3184 -2.1241 -593.1085 1815.4847)">
		<stop  offset="0" style="stop-color:#FFFFFF"/>
		<stop  offset="1" style="stop-color:#FFFFFF;stop-opacity:0"/>
	</linearGradient>
	<path id="path22109" fill="url(#path22109_1_)" d="M542.613,246.438c0.208,0.407-0.065,1.07-0.61,1.48s-1.157,0.413-1.365,0.006
		c-0.208-0.407,0.065-1.07,0.61-1.48C541.793,246.034,542.405,246.031,542.613,246.438z"/>
	
		<linearGradient id="path22111_1_" gradientUnits="userSpaceOnUse" x1="578.7893" y1="389.4315" x2="578.5522" y2="388.1431" gradientTransform="matrix(2.8633 1.7621 1.3102 -2.1291 -1621.1698 55.4259)">
		<stop  offset="0" style="stop-color:#FFFFFF"/>
		<stop  offset="1" style="stop-color:#FFFFFF;stop-opacity:0"/>
	</linearGradient>
	<path id="path22111" fill="url(#path22111_1_)" d="M546.043,248.137c-0.207,0.408-0.818,0.408-1.365,0
		c-0.547-0.408-0.822-1.069-0.615-1.477s0.818-0.408,1.365,0S546.25,247.729,546.043,248.137z"/>
	
		<linearGradient id="path22113_1_" gradientUnits="userSpaceOnUse" x1="540.4661" y1="345.2889" x2="540.0564" y2="344.0458" gradientTransform="matrix(3.3621 0 0 -2.5 -1264.6443 1112.1178)">
		<stop  offset="0" style="stop-color:#FFFFFF"/>
		<stop  offset="1" style="stop-color:#FFFFFF;stop-opacity:0"/>
	</linearGradient>
	<path id="path22113" fill="url(#path22113_1_)" d="M552.951,250.361c0,0.479-0.521,0.867-1.162,0.867s-1.162-0.389-1.162-0.867
		s0.521-0.867,1.162-0.867S552.951,249.882,552.951,250.361z"/>
	
		<linearGradient id="path22115_1_" gradientUnits="userSpaceOnUse" x1="507.5969" y1="327.3798" x2="506.5737" y2="327.0568" gradientTransform="matrix(3.0805 -1.3468 -1.0015 -2.2907 -679.0385 1680.8256)">
		<stop  offset="0" style="stop-color:#FFFFFF"/>
		<stop  offset="1" style="stop-color:#FFFFFF;stop-opacity:0"/>
	</linearGradient>
	<path id="path22115" fill="url(#path22115_1_)" d="M556.431,247.773c0.158,0.438-0.19,1.047-0.778,1.359s-1.193,0.208-1.352-0.23
		s0.19-1.047,0.778-1.359S556.273,247.334,556.431,247.773z"/>
	
		<linearGradient id="path22117_1_" gradientUnits="userSpaceOnUse" x1="527.259" y1="312.9452" x2="526.3035" y2="312.4516" gradientTransform="matrix(3.0957 -1.3115 -0.9752 -2.302 -777.4381 1657.7454)">
		<stop  offset="0" style="stop-color:#FFFFFF"/>
		<stop  offset="1" style="stop-color:#FFFFFF;stop-opacity:0"/>
	</linearGradient>
	<path id="path22117" fill="url(#path22117_1_)" d="M549.283,246.703c0.154,0.441-0.201,1.045-0.792,1.349
		c-0.591,0.303-1.195,0.192-1.349-0.249c-0.154-0.441,0.2-1.045,0.791-1.348S549.129,246.263,549.283,246.703z"/>
	
		<linearGradient id="path22119_1_" gradientUnits="userSpaceOnUse" x1="540.8362" y1="330.0428" x2="540.1908" y2="329.0393" gradientTransform="matrix(3.3621 0 0 -2.5 -1265.3123 1069.3522)">
		<stop  offset="0" style="stop-color:#FFFFFF"/>
		<stop  offset="1" style="stop-color:#FFFFFF;stop-opacity:0"/>
	</linearGradient>
	<path id="path22119" fill="url(#path22119_1_)" d="M552.892,245.736c0,0.479-0.521,0.867-1.162,0.867s-1.162-0.388-1.162-0.867
		c0-0.479,0.521-0.867,1.162-0.867S552.892,245.257,552.892,245.736z"/>
	
		<linearGradient id="path22121_1_" gradientUnits="userSpaceOnUse" x1="574.2112" y1="373.4432" x2="574.0643" y2="372.2486" gradientTransform="matrix(2.6305 2.0938 1.5569 -1.956 -1539.9272 -230.9288)">
		<stop  offset="0" style="stop-color:#FFFFFF"/>
		<stop  offset="1" style="stop-color:#FFFFFF;stop-opacity:0"/>
	</linearGradient>
	<path id="path22121" fill="url(#path22121_1_)" d="M551.745,242.784c-0.246,0.375-0.854,0.285-1.355-0.199s-0.71-1.182-0.464-1.556
		c0.246-0.374,0.853-0.285,1.354,0.199C551.783,241.712,551.99,242.409,551.745,242.784z"/>
	
		<linearGradient id="path22123_1_" gradientUnits="userSpaceOnUse" x1="558.2405" y1="323.6581" x2="557.4861" y2="322.9037" gradientTransform="matrix(3.3621 0 0 -2.5 -1329.4626 1051.9791)">
		<stop  offset="0" style="stop-color:#FFFFFF"/>
		<stop  offset="1" style="stop-color:#FFFFFF;stop-opacity:0"/>
	</linearGradient>
	<path id="path22123" fill="url(#path22123_1_)" d="M547.169,243.857c0,0.479-0.521,0.867-1.162,0.867s-1.163-0.389-1.163-0.867
		c0-0.479,0.521-0.867,1.163-0.867S547.169,243.378,547.169,243.857z"/>
	
		<linearGradient id="path22125_1_" gradientUnits="userSpaceOnUse" x1="566.0461" y1="421.1151" x2="565.9746" y2="419.6415" gradientTransform="matrix(2.1571 2.5789 1.9176 -1.604 -1478.276 -535.1923)">
		<stop  offset="0" style="stop-color:#FFFFFF"/>
		<stop  offset="1" style="stop-color:#FFFFFF;stop-opacity:0"/>
	</linearGradient>
	<path id="path22125" fill="url(#path22125_1_)" d="M549.018,251.659c-0.303,0.307-0.883,0.072-1.294-0.525s-0.5-1.33-0.197-1.637
		c0.303-0.307,0.883-0.072,1.295,0.525C549.233,250.618,549.321,251.351,549.018,251.659z"/>
	
		<linearGradient id="path22127_1_" gradientUnits="userSpaceOnUse" x1="530.3674" y1="353.2694" x2="531.0676" y2="353.2694" gradientTransform="matrix(3.2549 0.8421 0.6262 -2.4203 -1390.2291 658.3423)">
		<stop  offset="0" style="stop-color:#FFFFFF"/>
		<stop  offset="1" style="stop-color:#FFFFFF;stop-opacity:0"/>
	</linearGradient>
	<path id="path22127" fill="url(#path22127_1_)" d="M559.531,250.569c-0.099,0.463-0.684,0.681-1.305,0.486
		s-1.045-0.729-0.946-1.192s0.684-0.681,1.305-0.486S559.63,250.106,559.531,250.569z"/>
	
		<linearGradient id="path22129_1_" gradientUnits="userSpaceOnUse" x1="509.324" y1="308.9159" x2="508.4784" y2="308.0347" gradientTransform="matrix(3.1361 -1.2118 -0.9011 -2.332 -764.0824 1578.7025)">
		<stop  offset="0" style="stop-color:#FFFFFF"/>
		<stop  offset="1" style="stop-color:#FFFFFF;stop-opacity:0"/>
	</linearGradient>
	<path id="path22129" fill="url(#path22129_1_)" d="M554.96,242.266c0.142,0.446-0.229,1.036-0.827,1.316
		c-0.598,0.28-1.199,0.146-1.342-0.301c-0.143-0.447,0.229-1.037,0.826-1.317C554.216,241.684,554.818,241.819,554.96,242.266z"/>
	
		<linearGradient id="path22131_1_" gradientUnits="userSpaceOnUse" x1="501.1213" y1="324.6063" x2="500.311" y2="323.4638" gradientTransform="matrix(3.1615 -1.1439 -0.8506 -2.3508 -749.0314 1579.8822)">
		<stop  offset="0" style="stop-color:#FFFFFF"/>
		<stop  offset="1" style="stop-color:#FFFFFF;stop-opacity:0"/>
	</linearGradient>
	<path id="path22131" fill="url(#path22131_1_)" d="M559.261,245.257c0.134,0.45-0.247,1.03-0.85,1.294
		c-0.604,0.265-1.202,0.114-1.337-0.336s0.246-1.03,0.85-1.295S559.126,244.807,559.261,245.257z"/>
	
		<linearGradient id="path22133_1_" gradientUnits="userSpaceOnUse" x1="540.634" y1="331.4022" x2="539.9897" y2="330.0449" gradientTransform="matrix(3.2416 0.8921 0.6634 -2.4104 -1413.3112 557.1884)">
		<stop  offset="0" style="stop-color:#FFFFFF"/>
		<stop  offset="1" style="stop-color:#FFFFFF;stop-opacity:0"/>
	</linearGradient>
	<path id="path22133" fill="url(#path22133_1_)" d="M558.215,242.786c-0.104,0.462-0.691,0.669-1.311,0.462
		c-0.618-0.207-1.035-0.749-0.931-1.21s0.692-0.668,1.311-0.462C557.904,241.782,558.321,242.324,558.215,242.786z"/>
	
		<linearGradient id="path22135_1_" gradientUnits="userSpaceOnUse" x1="541.7854" y1="364.495" x2="541.8412" y2="362.8666" gradientTransform="matrix(2.0731 2.6468 1.9682 -1.5415 -1274.394 -626.4238)">
		<stop  offset="0" style="stop-color:#FFFFFF"/>
		<stop  offset="1" style="stop-color:#FFFFFF;stop-opacity:0"/>
	</linearGradient>
	<path id="path22135" fill="url(#path22135_1_)" d="M565.263,248.218c-0.312,0.295-0.885,0.038-1.28-0.575s-0.464-1.349-0.153-1.644
		c0.311-0.295,0.884-0.038,1.28,0.575C565.505,247.186,565.573,247.923,565.263,248.218z"/>
	
		<linearGradient id="path22137_1_" gradientUnits="userSpaceOnUse" x1="501.6926" y1="333.1854" x2="500.8926" y2="332.3752" gradientTransform="matrix(3.283 -0.725 -0.5391 -2.4412 -905.569 1423.4009)">
		<stop  offset="0" style="stop-color:#FFFFFF"/>
		<stop  offset="1" style="stop-color:#FFFFFF;stop-opacity:0"/>
	</linearGradient>
	<path id="path22137" fill="url(#path22137_1_)" d="M561.986,247.166c0.085,0.467-0.354,0.983-0.981,1.15
		c-0.626,0.168-1.204-0.075-1.289-0.542c-0.085-0.468,0.354-0.983,0.98-1.151C561.323,246.455,561.9,246.699,561.986,247.166z"/>
	
		<linearGradient id="path22139_1_" gradientUnits="userSpaceOnUse" x1="486.7224" y1="322.2538" x2="485.4752" y2="321.6342" gradientTransform="matrix(3.1008 -1.2995 -0.9663 -2.3057 -634.5592 1617.1918)">
		<stop  offset="0" style="stop-color:#FFFFFF"/>
		<stop  offset="1" style="stop-color:#FFFFFF;stop-opacity:0"/>
	</linearGradient>
	<path id="path22139" fill="url(#path22139_1_)" d="M562.578,242.807c0.152,0.441-0.204,1.044-0.796,1.345
		c-0.592,0.3-1.196,0.186-1.349-0.255s0.204-1.044,0.796-1.344C561.822,242.251,562.425,242.365,562.578,242.807z"/>
</g>
</svg>
