<?xml version="1.0" encoding="utf-8"?>
<!-- Generator: Adobe Illustrator 15.0.0, SVG Export Plug-In . SVG Version: 6.00 Build 0)  -->
<!DOCTYPE svg PUBLIC "-//W3C//DTD SVG 1.1//EN" "http://www.w3.org/Graphics/SVG/1.1/DTD/svg11.dtd">
<svg version="1.1" id="Layer_1" xmlns="http://www.w3.org/2000/svg" xmlns:xlink="http://www.w3.org/1999/xlink" x="0px" y="0px"
	 width="50px" height="50px" viewBox="91.5 92.5 50 50" enable-background="new 91.5 92.5 50 50" xml:space="preserve">
<g id="Mountain">
	<circle fill="#54B948" cx="116.5" cy="117.646" r="25"/>
	<ellipse cx="116.186" cy="127.966" rx="19.461" ry="2.795"/>
	<path fill="#FFFFFF" d="M115.564,102.516c0-0.593,0.934-1.073,2.083-1.073c0.034,0,0.069,0.001,0.104,0.002
		c0.353-0.251,0.926-0.417,1.576-0.417c1.006,0,1.832,0.392,1.929,0.894c0.087-0.003,0.177-0.005,0.266-0.005
		c1.567,0,2.843,0.462,2.92,1.042c0.349,0.179,0.556,0.396,0.556,0.63c0,0.606-1.368,1.098-3.057,1.098
		c-0.734,0-1.407-0.095-1.935-0.248c-0.359,0.153-0.859,0.248-1.41,0.248c-1.097,0-1.986-0.374-1.986-0.837
		c0-0.127,0.07-0.246,0.19-0.354C116.072,103.328,115.564,102.953,115.564,102.516z"/>
	<path fill="#58595B" d="M132.903,128.282l-1.359-5.552l-2.871-1.893l-3.427-8.562c-0.833-0.187-2.5-1.396-2.777-2.329l-3.335-5.956
		l-2.593-1.583l-1.019,2.607l-2.872,2.699c-0.093,1.21-1.759,4.467-3.056,5.12c0,0-1.852-1.304-1.944-2.048
		c0,0-1.667,2.978-1.852,4.188c0,0-1.204,5.677-2.501,6.33l-3.921,6.234c2.408,1.272,5.435,1.707,8.274,1.707
		c2.84,0,9.507-1.055,12.163-1.055C122.469,128.19,126.233,129.493,132.903,128.282z"/>
	<path fill="#3D3D3E" d="M108.444,115.828c0.771,1.137,2.401,2.104,2.862,3.219c-0.357-1.063-1.836-5.537-1.711-6.213
		c0,0-1.853-1.304-1.945-2.048C107.622,112.025,107.622,114.613,108.444,115.828z"/>
	<path fill="#3D3D3E" d="M121.536,110.81c0.617,0.412,3.004,4.453,5.402,5.694l-1.692-4.229c-0.833-0.187-2.5-1.396-2.777-2.327
		l-3.335-5.957l-2.593-1.583l1.938,2.716C118.479,105.125,120.831,110.339,121.536,110.81z"/>
	<path fill="#FFFFFF" d="M116.798,103.19l-0.702,2.223l-2.343,2.108c1.072,0.704,2.376,0.735,3.381,0.704
		c1.003-0.034,2.577-0.135,3.247-0.537l-1.907-3.28L116.798,103.19z"/>
	<path fill="#FFFFFF" d="M107.682,111.823c-0.281,0.659-1.041,1.949-1.041,2.608c0,0,0.702,0.199,1.259,0L107.682,111.823z"/>
	<path fill="#3D3D3E" d="M112.233,119.63c0.837,0.888,2.822,1.776,2.979,2.874c0.157,1.097,1.855,3.814,1.855,3.814
		s-1.072,0.262-1.855-0.261C114.429,125.535,112.233,119.63,112.233,119.63z"/>
	<path fill="#3D3D3E" d="M125.822,120.204c0.836,0.628,3.031,1.829,3.031,1.829l1.358,5.645c0,0-0.732,0.367-1.202,0.288
		C128.539,127.887,125.822,120.204,125.822,120.204z"/>
	<path fill="#FFFFFF" d="M111.914,105.124c0-0.593-0.933-1.073-2.083-1.073c-0.035,0-0.068,0.001-0.104,0.002
		c-0.351-0.251-0.925-0.416-1.576-0.416c-1.004,0-1.831,0.391-1.928,0.892c-0.088-0.001-0.177-0.003-0.267-0.003
		c-1.566,0-2.841,0.46-2.919,1.042c-0.348,0.179-0.555,0.395-0.555,0.629c0,0.606,1.369,1.098,3.057,1.098
		c0.734,0,1.407-0.093,1.935-0.248c0.359,0.153,0.858,0.248,1.41,0.248c1.097,0,1.986-0.374,1.986-0.836
		c0-0.128-0.07-0.248-0.19-0.355C111.406,105.937,111.914,105.56,111.914,105.124z"/>
</g>
</svg>
