<?xml version="1.0" encoding="utf-8"?>
<!-- Generator: Adobe Illustrator 15.0.0, SVG Export Plug-In . SVG Version: 6.00 Build 0)  -->
<!DOCTYPE svg PUBLIC "-//W3C//DTD SVG 1.1//EN" "http://www.w3.org/Graphics/SVG/1.1/DTD/svg11.dtd">
<svg version="1.1" id="Layer_1" xmlns="http://www.w3.org/2000/svg" xmlns:xlink="http://www.w3.org/1999/xlink" x="0px" y="0px"
	 width="49.555px" height="50px" viewBox="396.39 272.64 49.555 50" enable-background="new 396.39 272.64 49.555 50"
	 xml:space="preserve">
<circle fill="#A7D9FF" cx="420.945" cy="297.64" r="25"/>
<path fill="#C2E4FC" d="M399.533,284.73c-2.277,3.769-3.589,8.186-3.589,12.911c0,6.415,2.418,12.264,6.391,16.689
	c5.013,2.277,11.169,3.623,17.828,3.623c7.914,0,15.122-1.896,20.539-5.004c3.283-4.23,5.242-9.539,5.242-15.309
	c0-4.079-0.982-7.925-2.715-11.326c-5.587-4.065-13.846-6.643-23.066-6.643C412.204,279.672,404.961,281.591,399.533,284.73z"/>
<path fill="#DAEFF9" d="M444.284,306.599c1.068-2.782,1.66-5.801,1.66-8.959c0-2.364-0.335-4.648-0.948-6.816
	c-5.045-4.339-14.276-7.246-24.833-7.246c-9.259,0-17.496,2.238-22.786,5.716c-0.925,2.611-1.433,5.419-1.433,8.347
	c0,3.729,0.823,7.266,2.288,10.445c5.301,3.169,13.157,5.18,21.931,5.18C430.241,313.265,439.111,310.615,444.284,306.599z"/>
<path fill="#B1D5EC" d="M396.39,292.953h49.109c-0.402-2.122-1.069-4.149-1.972-6.044l-12.794-3.046
	c-0.782-0.187-1.601-0.16-2.37,0.077l-7.87,2.421c-0.727,0.224-1.501,0.238-2.236,0.042l-9.469-2.525
	c-0.738-0.197-1.514-0.203-2.255-0.018l-7.589,1.897C397.744,287.975,396.875,290.396,396.39,292.953z"/>
<g>
	<path fill="#7DB9E6" d="M445.945,297.64c0-2.279-0.311-4.485-0.882-6.583c-2.666-1.217-6.931-3.573-7.712-3.573
		c-1.747,0-10.933,4.074-11.762,4.015c-1.52-0.108-8.551-2.452-10.113-2.452c-0.781,0-9.375,2.344-10.938,2.344
		c-1.095,0-4.871-1.533-7.035-2.451c-1.006,2.71-1.559,5.641-1.559,8.701c0,0.018,0.001,0.036,0.001,0.054l49.98,0.685
		C445.933,298.133,445.945,297.888,445.945,297.64z"/>
	<path fill="#7DB9E6" d="M395.964,296.859c-0.008,0.26-0.02,0.519-0.02,0.781c0,13.807,11.193,25,25,25c13.807,0,25-11.193,25-25
		c0-0.262-0.012-0.521-0.02-0.781H395.964z"/>
</g>
<path fill="#649BD2" d="M444.693,305.453h-37.42c-0.647,0-1.172,0.524-1.172,1.172s0.525,1.172,1.172,1.172h7.494
	c0.161,0.454,0.59,0.781,1.1,0.781h14.524c0.162,0.454,0.591,0.781,1.101,0.781h11.537
	C443.69,308.116,444.246,306.81,444.693,305.453z"/>
<g opacity="0.4">
	<path fill="#FFFFF5" d="M395.964,296.859c-0.008,0.26-0.02,0.519-0.02,0.781c0,1.603,0.157,3.169,0.445,4.688h49.109
		c0.288-1.519,0.445-3.085,0.445-4.688c0-0.262-0.012-0.521-0.02-0.781H395.964z"/>
</g>
<path fill="#7DB9E6" d="M410.398,298.422h-14.44c0.024,0.791,0.085,1.573,0.181,2.344h14.259c0.647,0,1.172-0.524,1.172-1.172
	S411.045,298.422,410.398,298.422z"/>
<path fill="#5AA07E" d="M445.945,297.64c0-2.297-0.315-4.518-0.896-6.63l-0.319,1.118l-0.781-2.734l-0.67,2.344l-0.893-3.125
	l-1.346,4.709l-0.998-3.494l-0.67,2.344l-0.893-3.125l-0.899,3.147l-0.577-2.019l-0.434,1.519l-0.434-1.519l-1.049,3.668
	l-0.492-0.033l-1.584-5.545l-0.899,3.146l-0.577-2.018l-0.774,2.713l-0.874-3.06l-0.961,3.364l-0.516-1.801l-0.328,1.15
	l-0.453-1.584l-1.054,3.689l-1.376-4.817l-1.333,4.666l-1.011-3.537l-1.487,4.015l-1.351-4.948l-1.255,4.275l-0.508-1.78
	l-0.608,2.126l-0.26-0.911l-1.29,4.514l-0.967-3.385l-2.419,8.247h32.79C445.787,300.809,445.945,299.243,445.945,297.64z"/>
<polygon fill="#6EAA64" points="434.573,289.828 432.663,296.512 436.483,296.512 "/>
<rect x="434.334" y="296.511" fill="#5F4648" width="0.478" height="1.91"/>
<polygon fill="#8CBE69" points="434.573,289.828 434.096,291.499 435.528,296.512 436.483,296.512 "/>
<polygon fill="#6EAA64" points="432.012,291.26 430.58,295.557 433.445,295.557 "/>
<rect x="431.774" y="295.557" fill="#5F4648" width="0.478" height="3.646"/>
<polygon fill="#8CBE69" points="432.012,291.26 431.534,292.693 432.49,295.557 433.445,295.557 "/>
<polygon fill="#6EAA64" points="416.127,293.604 414.695,297.901 417.559,297.901 "/>
<rect x="415.888" y="297.901" fill="#5F4648" width="0.478" height="3.646"/>
<polygon fill="#8CBE69" points="416.127,293.604 415.65,295.036 416.604,297.901 417.559,297.901 "/>
<polygon fill="#6EAA64" points="421.075,290.739 419.642,297.25 422.507,297.25 "/>
<rect x="420.836" y="297.25" fill="#5F4648" width="0.478" height="3.646"/>
<polygon fill="#8CBE69" points="421.075,290.739 420.672,292.57 421.552,297.25 422.507,297.25 "/>
<polygon fill="#6EAA64" points="426.066,289.828 424.156,296.512 427.976,296.512 "/>
<rect x="425.827" y="296.511" fill="#5F4648" width="0.478" height="1.91"/>
<polygon fill="#8CBE69" points="426.066,289.828 425.589,291.499 427.021,296.512 427.976,296.512 "/>
<polygon fill="#6EAA64" points="440.823,289.828 438.913,296.512 442.733,296.512 "/>
<rect x="440.584" y="296.511" fill="#5F4648" width="0.478" height="1.91"/>
<polygon fill="#8CBE69" points="440.823,289.828 440.346,291.499 441.778,296.512 442.733,296.512 "/>
<path fill="#DCD7C3" d="M439.111,297.705c-3.063-0.835-4.037-0.846-6.25,0.586c-2.214,1.432-3.58,0.337-4.883-0.131
	c-3.451-1.237-4.167,0.651-7.162,1.042s-3.883-0.312-5.599,0.261c-2.539,0.846-2.139,2.425-4.492,3.255
	c-2.213,0.781-1.627,3.516-1.627,3.516h35.331c0.981-2.68,1.517-5.574,1.517-8.594c0-0.231-0.011-0.46-0.018-0.69
	C444.069,297.541,441.625,298.391,439.111,297.705z"/>
<path fill="#CDC3AF" d="M445.652,301.477c-1.251-0.107-2.6-0.089-3.809,0.395c-3.906,1.562-4.102-0.455-6.836-1.106
	c-3.009-0.717-5.144,2.669-9.18,2.864c-1.745,0.085-3.15-1.076-4.883-1.302c-2.995-0.391-4.688,2.344-7.812,1.562
	s-4.035,2.344-4.035,2.344h35.331C444.986,304.713,445.398,303.121,445.652,301.477z"/>
<g>
	<path fill="#DCD7C3" d="M423.575,305.453c-0.349,0-0.678,0.078-0.974,0.215c-0.629-0.615-1.487-0.996-2.438-0.996
		c-1.528,0-2.816,0.981-3.3,2.344h4.512h2.089h2.312C425.452,306.107,424.594,305.453,423.575,305.453z"/>
	<path fill="#DCD7C3" d="M438.483,307.015c-0.484-1.362-1.771-2.344-3.3-2.344s-2.816,0.981-3.301,2.344H438.483z"/>
</g>
<path fill="#5AA07E" d="M405.727,295.991l-1.218-2.257l-0.246,0.456l-0.574-1.063l-0.48,0.89l-1.503-1.747l-1.27,1.318l-1.27-1.611
	l-1.05,1.318l-0.986-1.514l-0.795,1.473c-0.252,1.425-0.392,2.889-0.392,4.387c0,0.262,0.012,0.521,0.02,0.781h12.578l-1.901-4.123
	L405.727,295.991z"/>
<path fill="#DCD7C3" d="M409.243,297.891c-1.058-0.374-0.878-1.083-2.021-1.464c-0.772-0.257-1.171,0.059-2.519-0.117
	c-1.347-0.176-1.669-1.025-3.221-0.468c-0.586,0.21-1.201,0.703-2.196,0.059c-0.996-0.645-1.434-0.64-2.811-0.264
	c-0.151,0.041-0.302,0.068-0.451,0.087c-0.048,0.633-0.081,1.271-0.081,1.917c0,0.617,0.03,1.227,0.074,1.832h13.957
	C409.975,299.472,410.239,298.243,409.243,297.891z"/>
<path fill="#CDC3AF" d="M396.019,299.472h13.957c0,0-0.409-1.406-1.814-1.054c-1.406,0.351-2.167-0.879-3.514-0.703
	c-0.779,0.102-1.411,0.623-2.196,0.586c-1.815-0.088-2.775-1.611-4.129-1.289c-1.038,0.248-1.273,0.922-2.375,0.707
	C395.948,298.309,395.977,298.892,396.019,299.472z"/>
<path fill="#649BD2" d="M402.09,314.047c4.583,5.263,11.328,8.594,18.854,8.594c7.526,0,14.271-3.331,18.854-8.594H402.09z"/>
<path fill="#DCF0FF" d="M412.795,280.341c0-0.747,0.605-1.353,1.353-1.353c0.113,0,0.221,0.018,0.325,0.044
	c0.353-0.381,0.854-0.624,1.414-0.624c1.067,0,1.933,0.865,1.933,1.933H412.795L412.795,280.341z"/>
<g>
	<path fill="#FFFFFF" d="M423.635,277.221c0-0.865-0.701-1.566-1.565-1.566c-0.131,0-0.256,0.021-0.377,0.051
		c-0.408-0.441-0.987-0.722-1.636-0.722c-1.235,0-2.237,1.001-2.237,2.237H423.635z"/>
	<path fill="#FFFFFF" d="M414.322,279.684c-0.163,0-0.316,0.032-0.464,0.078c-0.467-0.671-1.241-1.112-2.12-1.112
		s-1.654,0.441-2.121,1.112c-0.147-0.046-0.301-0.078-0.464-0.078c-0.856,0-1.55,0.694-1.55,1.55h8.269
		C415.872,280.378,415.178,279.684,414.322,279.684z"/>
</g>
<g>
	<path fill="#DCF0FF" d="M421.926,277.818c0-0.571,0.463-1.034,1.034-1.034c0.086,0,0.168,0.014,0.248,0.033
		c0.27-0.291,0.652-0.477,1.081-0.477c0.815,0,1.477,0.662,1.477,1.477H421.926L421.926,277.818z"/>
	<path fill="#DCF0FF" d="M425.398,281.149c0-0.571,0.463-1.034,1.034-1.034c0.086,0,0.168,0.014,0.248,0.033
		c0.27-0.291,0.652-0.477,1.081-0.477c0.815,0,1.477,0.662,1.477,1.477H425.398L425.398,281.149z"/>
</g>
<path fill="#FFFFFF" d="M432.851,280.796c-0.144,0-0.28,0.028-0.411,0.069c-0.414-0.595-1.101-0.986-1.88-0.986
	s-1.466,0.391-1.88,0.986c-0.131-0.041-0.267-0.069-0.411-0.069c-0.76,0-1.375,0.615-1.375,1.375h7.332
	C434.226,281.411,433.611,280.796,432.851,280.796z"/>
</svg>
