<?xml version="1.0" encoding="iso-8859-1"?>
<!-- Generator: Adobe Illustrator 15.0.0, SVG Export Plug-In . SVG Version: 6.00 Build 0)  -->
<!DOCTYPE svg PUBLIC "-//W3C//DTD SVG 1.1//EN" "http://www.w3.org/Graphics/SVG/1.1/DTD/svg11.dtd">
<svg version="1.1" xmlns="http://www.w3.org/2000/svg" xmlns:xlink="http://www.w3.org/1999/xlink" x="0px" y="0px" width="235px"
	 height="235px" viewBox="0 0 235 235" style="enable-background:new 0 0 235 235;" xml:space="preserve">
<g id="Waterfall">
	<rect opacity="0" width="234.999" height="235"/>
	<path opacity="0" d="M117.499,18.502c-54.675,0-98.999,44.324-98.999,99c0,54.674,44.324,99,98.999,99
		c54.677,0,98.999-44.326,98.999-99C216.498,62.826,172.176,18.502,117.499,18.502z M117.499,202.98
		c-47.208,0-85.479-38.27-85.479-85.479c0-47.208,38.271-85.479,85.479-85.479c47.209,0,85.479,38.27,85.479,85.479
		C202.979,164.711,164.708,202.98,117.499,202.98z"/>
	<circle style="fill:#54B948;" cx="117.5" cy="118.188" r="79.727"/>
	<path style="fill:#58595B;" d="M117.5,197.912c44.032,0,79.727-35.693,79.727-79.725c0-7.579-1.08-14.9-3.056-21.846
		c-27.769-4.053-53.39-3.37-55.109,0.606H91.728c-3.07-5.81-25.774-5.671-49.91-3.829c-2.61,7.886-4.044,16.307-4.044,25.068
		C37.773,162.219,73.467,197.912,117.5,197.912z"/>
	<path style="fill:#3D3D3E;" d="M176.061,147.037c-5-10.15-18.333-10.734-20.333-16.442c-1.532-4.374,3.93-20.854,0.292-36.942
		c-9.63,0.211-16.122,1.363-16.958,3.295H91.728c-1.528-2.893-7.925-4.31-16.939-4.777c3.915,15.012,8.936,33.282,11.939,39.634
		c3.666,7.748,2,17.743,2.333,27.579c0.224,6.604-0.966,20.341-0.996,32.894c9.11,3.623,19.035,5.635,29.436,5.635
		c24.389,0,46.206-10.962,60.83-28.215C178.443,159.857,178.048,151.072,176.061,147.037z"/>
	<path style="fill:#007F9F;" d="M117.5,197.912c16.305,0,31.46-4.903,44.09-13.303c-0.561-5.736-1.603-13.602-3.528-22.057
		c-3.834-16.833-13.666-24.666-14.5-28.833s5.5-30.043-4.5-36.771c0,0-18.334-1.771-47.334,0c2.834,7.271,5.833,21.438,8.5,27.104
		c2.667,5.667,2.166,17.834,3,24.334c0.728,5.673,2.309,34.441,0.222,48.267C108.013,197.465,112.703,197.912,117.5,197.912z"/>
	<path style="fill:#FFFFFF;" d="M161.59,184.609c-0.561-5.736-1.603-13.602-3.528-22.057c-3.834-16.833-13.666-24.666-14.5-28.833
		s5.5-30.043-4.5-36.771c0,0-0.433-0.042-1.261-0.105c1.76,6.127,6.76,10.688,4.76,20.657s-2.25,18.22,2.25,25.47
		c3.952,6.367,15.434,26.472,14.694,42.974C160.206,185.507,160.903,185.065,161.59,184.609z"/>
	<path style="fill:#FFFFFF;" d="M103.228,148.387c0.728,5.673,2.309,34.441,0.222,48.267c2.45,0.436,4.939,0.757,7.46,0.97
		c-3.131-11.196-4.507-35.252-4.099-42.403c0.5-8.75-1.75-19-3.25-28c-1.353-8.114-5.754-20.488-10.332-30.358
		c-0.5,0.029-0.995,0.056-1.501,0.087c2.834,7.271,5.833,21.438,8.5,27.104C102.895,129.72,102.394,141.887,103.228,148.387z"/>
	<path style="fill:#FFFFFF;" d="M102.561,98.97c2.875,4.125,8.875,14.75,9.125,29.5C114.311,119.22,114.686,107.095,102.561,98.97z"
		/>
	<path style="fill:#FFFFFF;" d="M115.061,101.095c2.503,4.125,7.726,14.75,7.943,29.5
		C125.289,121.345,125.615,109.22,115.061,101.095z"/>
	<path style="fill:#FFFFFF;" d="M125.641,100.095c2.121,3.496,6.547,12.5,6.731,25C134.309,117.256,134.585,106.98,125.641,100.095z
		"/>
	<path style="fill:#FFFFFF;" d="M111.031,134.72c0.312,7.5,5.882,9.375,9.159,22.75s-1.902,16.5,0,25.125
		c-3.473-10.125-0.473-17.25-3.348-25S110.595,140.97,111.031,134.72z"/>
	<path style="fill:#FFFFFF;" d="M123.846,144.115c0.23,6.867,4.346,8.583,6.767,20.827c2.422,12.244-1.405,15.104,0,23.001
		c-2.565-9.27-0.349-15.792-2.473-22.887S123.523,149.838,123.846,144.115z"/>
	<path style="fill:#FFFFFF;" d="M129.245,131.805c0.533,6.85,4.721,8.382,7.681,20.507c2.961,12.125-0.736,15.152,1.017,22.978
		c-2.973-9.146-1.047-15.76-3.482-22.754S129.176,137.535,129.245,131.805z"/>
	<path style="fill:#FFFFFF;" d="M139.076,138.814c0.547,6.848,4.737,8.372,7.722,20.491c2.985,12.119-0.705,15.153,1.063,22.976
		c-2.991-9.141-1.078-15.758-3.528-22.747C141.884,152.545,139.019,144.545,139.076,138.814z"/>
</g>
<g id="Layer_1">
</g>
</svg>
