<svg xmlns:dc="http://purl.org/dc/elements/1.1/" xmlns:cc="http://creativecommons.org/ns#" xmlns:rdf="http://www.w3.org/1999/02/22-rdf-syntax-ns#" xmlns:svg="http://www.w3.org/2000/svg" xmlns="http://www.w3.org/2000/svg" xmlns:sodipodi="http://sodipodi.sourceforge.net/DTD/sodipodi-0.dtd" xmlns:inkscape="http://www.inkscape.org/namespaces/inkscape" viewBox="0 0 100 125" version="1.1" x="0px" y="0px"><g transform="translate(0,-952.36216)"><path style="opacity:1;fill:#000000;fill-opacity:1;stroke:none;stroke-width:2.5;stroke-linecap:round;stroke-linejoin:round;stroke-miterlimit:4;stroke-dasharray:none;stroke-dashoffset:0;stroke-opacity:1" d="m 50,957.36216 c -20.46578,0 -37.05657,16.5805 -37.05657,37.0338 0,20.45334 37.04609,52.96624 37.04609,52.96624 0,0 37.06705,-32.5129 37.06705,-52.96624 0,-20.4533 -16.59079,-37.0338 -37.05657,-37.0338 z m -0.009,11.5469 c 14.06973,0 25.48687,11.4172 25.48687,25.4869 0,14.06974 -11.41714,25.48664 -25.48687,25.48664 -0.0106,0 -0.0211,0 -0.0317,0 l -0.0115,0 c -0.0167,0 -0.0336,0 -0.0503,0 -0.42364,0 -0.84506,-0.013 -1.26361,-0.035 -0.0279,0 -0.0557,0 -0.0836,-0.01 -0.83816,-0.047 -1.66563,-0.1332 -2.4803,-0.2591 -0.009,0 -0.0171,0 -0.0257,0 -1.6906,-0.2631 -3.32622,-0.6926 -4.88987,-1.2712 -0.009,0 -0.0189,-0.01 -0.0283,-0.011 -0.77625,-0.2882 -1.53457,-0.6128 -2.27307,-0.9725 -0.0371,-0.018 -0.0743,-0.037 -0.11135,-0.055 -0.7089,-0.3495 -1.39938,-0.7306 -2.06924,-1.1423 -0.0664,-0.041 -0.13281,-0.082 -0.19885,-0.1239 -2.10935,-1.328 -3.82589,-2.823 -5.61639,-4.7756 -0.0405,-0.045 -0.0809,-0.091 -0.12104,-0.1363 -3.88186,-4.4729 -6.23208,-10.3103 -6.23208,-16.69384 0,-14.0696 11.41716,-25.4869 25.48688,-25.4869 z m 0,1.0621 c -9.1634,0 -17.14193,5.0394 -21.32115,12.4988 0.91043,0.2012 1.72624,0.5493 2.37027,1.011 l 0.87191,-1.016 1.26755,1.5162 2.88665,-3.3643 3.41353,4.0824 1.31469,-1.5327 1.6249,1.9432 4.50291,0.2219 3.15599,-4.2128 1.93482,2.5175 5.02351,-6.7061 4.24772,5.5263 1.8654,-2.4905 1.28299,1.6689 c 1.32107,-1.0567 3.12,-1.7406 5.07589,-1.9296 -4.45646,-5.913 -11.53799,-9.7342 -19.51758,-9.7342 z m 2.01239,3.3048 a 3.8204551,2.6150771 3.6710487 0 1 2.75881,1.0297 2.6150771,3.8204551 86.328951 0 1 1.48157,-0.3073 l -1.10955,0.6877 a 3.8204551,2.6150771 3.6710487 0 1 0.44121,0.8041 2.6150771,3.8204551 86.328951 0 1 3.57229,-2.2142 l -3.57229,2.2142 -0.86931,-0.539 -2.03465,1.2613 -3.57204,-2.2141 a 3.8204551,2.6150771 3.6710487 0 1 3.57204,2.2141 2.6150771,3.8204551 86.328951 0 1 1.45512,-1.6205 l -2.1232,-1.316 z m -25.39963,14.0558 c -0.67395,2.2363 -1.0375,4.6073 -1.0375,7.0642 0,3.6942 0.82041,7.19534 2.2867,10.33334 l 0.005,0 c 0.40182,-0.6723 1.32204,-1.1085 2.34066,-1.1093 1.01853,0 1.93861,0.4371 2.3404,1.1093 l 0.43019,0 c 0.46375,-0.2923 1.05924,-0.454 1.67625,-0.4551 0.61737,0 1.21355,0.1626 1.67756,0.4551 l 1.91492,0 c 0.70533,-0.5051 2.29992,-0.8318 4.06276,-0.8326 0.048,0 0.0959,0 0.14384,0 -0.18054,-0.064 -0.51153,-0.2832 -0.84652,-0.5609 -0.47185,-0.3913 -0.80152,-0.7722 -0.73646,-0.851 0.0651,-0.079 0.50052,0.1745 0.97253,0.5659 0.46548,0.3861 0.79352,0.7632 0.73777,0.8479 0.26529,0.01 0.52865,0.018 0.78677,0.037 0.46858,-0.524 1.27579,-0.841 2.14286,-0.8418 0.15323,0 0.30603,0.011 0.45665,0.031 l 0.44671,-4.59724 0,-9.715 -5.4833,0 c -0.81427,-0.2304 -1.87282,-0.3576 -2.97102,-0.3587 -1.09598,0 -2.15186,0.1288 -2.96447,0.3587 l -1.09435,0 c -0.81407,-0.2303 -1.87234,-0.3576 -2.97024,-0.3587 -0.5733,0 -1.1409,0.035 -1.67153,0.1032 -0.59811,-0.4515 -1.54823,-0.8923 -2.64641,-1.2279 z m 42.97687,0.7545 c -1.13748,0 -2.2313,0.1373 -3.05565,0.3823 -0.1828,-0.01 -0.36684,-0.012 -0.55123,-0.012 -1.09634,0 -2.1529,0.1287 -2.96579,0.3587 l -2.18425,0 c -0.83868,-0.2868 -2.02343,-0.4501 -3.26629,-0.4512 -1.24424,0 -2.43061,0.1641 -3.27022,0.4512 l -0.0891,0 0,12.33214 0.22741,2.3388 c 0.23366,-0.029 0.49313,-0.045 0.77315,-0.045 0.0466,-0.1589 0.10745,-0.3342 0.17711,-0.5096 0.22653,-0.5699 0.48726,-1.0013 0.58214,-0.9634 0.0948,0.038 -0.0119,0.5305 -0.23841,1.1001 -0.0524,0.1318 -0.10853,0.2607 -0.16531,0.3797 0.68637,0.026 1.45019,0.1284 2.21411,0.2971 0.99632,0.2211 1.93822,0.5427 2.66685,0.9107 0.48429,-0.4077 1.19268,-0.6425 1.93876,-0.6427 0.7916,0 1.53789,0.2657 2.01973,0.7168 l 7.7354,0 c 1.46628,-3.138 2.28695,-6.63914 2.28695,-10.33334 0,-1.9203 -0.22213,-3.7885 -0.64058,-5.5808 l -0.28924,0 c -0.77462,-0.4488 -2.27424,-0.7289 -3.90556,-0.7289 z m -18.86101,1.402 c -0.14493,0 -0.26174,0.1945 -0.26174,0.4362 l 0,6.8478 c 0,0.2416 0.11681,0.4362 0.26174,0.4362 0.14491,0 0.26146,-0.1946 0.26146,-0.4362 l 0,-6.8478 c 0,-0.2417 -0.11655,-0.4362 -0.26146,-0.4362 z m 1.3739,0.35 c -0.14491,0 -0.26148,0.108 -0.26148,0.2424 l 0,3.8078 c 0,0.1344 0.11655,0.2426 0.26148,0.2426 0.14493,0 0.26172,-0.1082 0.26172,-0.2426 l 0,-3.8078 c 0,-0.1344 -0.11681,-0.2424 -0.26172,-0.2424 z m -4.69522,0.6969 c -0.14493,0 -0.26174,0.1946 -0.26174,0.4362 l 0,6.8475 c 0,0.2417 0.11681,0.4363 0.26174,0.4363 0.14491,0 0.26147,-0.1946 0.26147,-0.4363 l 0,-6.8475 c 0,-0.2416 -0.11656,-0.4362 -0.26147,-0.4362 z m 1.73205,3.2907 c -0.14491,0 -0.26174,0.1387 -0.26174,0.3107 l 0,4.8744 c 0,0.172 0.11683,0.3105 0.26174,0.3105 0.14492,0 0.26147,-0.1385 0.26147,-0.3105 l 0,-4.8744 c 0,-0.172 -0.11655,-0.3107 -0.26147,-0.3107 z m 3.3593,0.9395 c -0.14137,0 -0.25597,0.8946 -0.25597,1.9972 -1e-5,1.1027 0.11459,1.9961 0.25597,1.9972 0.14147,0 0.25623,-0.8939 0.25623,-1.9972 -2e-5,-1.1033 -0.11478,-1.9972 -0.25623,-1.9972 z m -2.24582,3.4927 c -0.14493,0 -0.26147,0.1384 -0.26147,0.3104 l 0,4.87444 c 0,0.1721 0.11654,0.3108 0.26147,0.3108 0.14491,0 0.26174,-0.1387 0.26174,-0.3108 l 0,-4.87444 c 0,-0.172 -0.11683,-0.3104 -0.26174,-0.3104 z m 1.7572,1.3877 c -0.14493,0 -0.26147,0.108 -0.26147,0.2424 l 0,3.80784 c 0,0.1344 0.11654,0.2426 0.26147,0.2426 0.14491,0 0.26174,-0.1082 0.26174,-0.2426 l 0,-3.80784 c 0,-0.1344 -0.11683,-0.2424 -0.26174,-0.2424 z m -4.7167,0.185 c -0.14491,0 -0.26146,0.108 -0.26146,0.24234 l 0,3.8079 c 0,0.1343 0.11655,0.2426 0.26146,0.2426 0.14493,0 0.26147,-0.1083 0.26147,-0.2426 l 0,-3.8079 c 0,-0.13434 -0.11654,-0.24234 -0.26147,-0.24234 z m 9.73312,1.27964 c 0.0985,0.027 0.0473,0.5285 -0.11424,1.12 -0.16146,0.5913 -0.3722,1.0489 -0.47079,1.0223 -0.0988,-0.026 -0.0477,-0.5281 0.11396,-1.12 0.1616,-0.5918 0.37257,-1.0496 0.47107,-1.0223 z m -15.14226,0.1354 c 0.10517,0 0.35374,0.4241 0.56905,0.9657 0.22645,0.5699 0.33313,1.0623 0.23814,1.0999 -0.0949,0.038 -0.3556,-0.3935 -0.58214,-0.9634 -0.22658,-0.57 -0.33328,-1.0627 -0.23816,-1.1001 0.004,0 0.008,0 0.0132,0 z m 25.30661,5.7752 -0.20462,0.057 c 0.12243,0.4404 -0.11139,0.8943 -0.62931,1.164 -0.51792,0.2697 -1.21486,0.2804 -1.74777,0.026 -0.45482,-0.217 -0.70912,-0.5757 -0.71288,-0.9516 -0.0663,0.035 -0.13491,0.068 -0.20567,0.098 0.0459,0.427 0.35257,0.8186 0.82738,1.0451 0.59862,0.2855 1.3532,0.2743 1.93693,-0.03 0.58372,-0.304 0.88761,-0.8636 0.73594,-1.4093 z m -29.15297,0.5782 -0.20723,0.046 c 0.0985,0.443 -0.16034,0.8918 -0.69325,1.146 -0.5329,0.2542 -1.22958,0.2435 -1.7475,-0.026 -0.38688,-0.2014 -0.61516,-0.5056 -0.65498,-0.8303 -0.0267,0 -0.0535,0 -0.0802,0 -0.0439,0 -0.0875,0 -0.13126,0 0.0422,0.4091 0.32381,0.789 0.76843,1.0205 0.58372,0.3039 1.33832,0.3151 1.93694,0.03 0.59862,-0.2855 0.93151,-0.8331 0.80903,-1.3839 l 0,0 z m 20.25903,0.076 -0.20462,0.057 c 0.12242,0.4405 -0.11166,0.8944 -0.62958,1.1641 -0.51792,0.2697 -1.21434,0.2806 -1.74724,0.026 -0.53289,-0.2542 -0.79175,-0.7033 -0.69323,-1.1463 l -0.20751,-0.046 c -0.12248,0.5508 0.21043,1.0983 0.80905,1.3839 0.59862,0.2855 1.35348,0.2743 1.93719,-0.03 0.58373,-0.304 0.88763,-0.8636 0.73594,-1.4093 z m -14.847,0.5235 c -0.15167,0.5457 0.15222,1.1053 0.73595,1.4092 0.58372,0.304 1.33857,0.3149 1.93719,0.029 0.10592,-0.051 0.20284,-0.1095 0.29108,-0.175 l 0,-0.2738 c -0.10482,0.098 -0.2325,0.1856 -0.38278,0.2573 -0.5329,0.2542 -1.22931,0.2432 -1.74724,-0.026 -0.51792,-0.2697 -0.75201,-0.7233 -0.62958,-1.1638 l -0.20462,-0.057 z m 20.20951,1.5701 -0.20461,0.057 c 0.12243,0.4404 -0.1114,0.8946 -0.62932,1.1643 -0.51791,0.2697 -1.21487,0.2806 -1.74776,0.026 -0.53289,-0.2542 -0.79149,-0.7033 -0.69299,-1.1463 l -0.20723,-0.046 c -0.1225,0.5508 0.21016,1.0983 0.80878,1.3839 0.59863,0.2855 1.35346,0.2743 1.93719,-0.03 0.58373,-0.304 0.88761,-0.8636 0.73594,-1.4093 z m -25.57201,0.5235 c -0.15169,0.5457 0.15221,1.1053 0.73594,1.4092 0.58371,0.304 1.33831,0.3152 1.93693,0.03 0.59862,-0.2855 0.93152,-0.8331 0.80903,-1.3838 l -0.20723,0.046 c 0.0985,0.443 -0.16035,0.8921 -0.69324,1.1463 -0.53291,0.2542 -1.22957,0.2432 -1.7475,-0.026 -0.51792,-0.2697 -0.75175,-0.7233 -0.62932,-1.1638 l -0.20461,-0.057 z m 11.86549,0.3586 c 0.0322,0.4407 0.34366,0.8475 0.83157,1.0802 0.59862,0.2856 1.35347,0.2744 1.93719,-0.03 0.45556,-0.2372 0.73937,-0.63 0.77052,-1.0506 l -0.21117,0 c -0.0283,0.3365 -0.2581,0.654 -0.6576,0.862 -0.51792,0.2697 -1.21461,0.2807 -1.74751,0.026 -0.42925,-0.2048 -0.68021,-0.5359 -0.71027,-0.8885 l -0.21273,0 z m 9.91336,2.1274 -0.20435,0.057 c 0.12243,0.4404 -0.11165,0.8944 -0.62958,1.164 -0.51792,0.2697 -1.21461,0.2804 -1.7475,0.026 -0.53289,-0.2542 -0.79174,-0.703 -0.69324,-1.1459 l -0.20724,-0.046 c -0.12248,0.5507 0.21041,1.0986 0.80903,1.3841 0.59862,0.2856 1.35322,0.2743 1.93694,-0.03 0.58373,-0.3039 0.88763,-0.8636 0.73594,-1.4093 z m -17.98595,0.5232 c -0.15169,0.5457 0.15221,1.1054 0.73594,1.4093 0.58371,0.3039 1.33857,0.3154 1.93719,0.03 0.59862,-0.2856 0.93153,-0.8331 0.80905,-1.3839 l -0.20725,0.046 c 0.0985,0.4429 -0.16033,0.892 -0.69323,1.1462 -0.53289,0.2542 -1.22985,0.2432 -1.74777,-0.026 -0.51792,-0.2696 -0.75174,-0.7233 -0.62931,-1.1638 l -0.20462,-0.057 z m 11.57703,1.4394 -0.20436,0.057 c 0.12242,0.4405 -0.11165,0.8946 -0.62957,1.1643 -0.51792,0.2697 -1.21461,0.2801 -1.74751,0.026 -0.53289,-0.2542 -0.79149,-0.703 -0.69298,-1.1459 l -0.2075,-0.046 c -0.12248,0.5507 0.21043,1.0983 0.80905,1.3838 0.59862,0.2856 1.35347,0.2743 1.93719,-0.03 0.58373,-0.3039 0.88737,-0.8636 0.73568,-1.4093 z"/></g><text x="0" y="115" fill="#000000" font-size="5px" font-weight="bold" font-family="'Helvetica Neue', Helvetica, Arial-Unicode, Arial, Sans-serif">Created by anbileru adaleru</text><text x="0" y="120" fill="#000000" font-size="5px" font-weight="bold" font-family="'Helvetica Neue', Helvetica, Arial-Unicode, Arial, Sans-serif">from the Noun Project</text></svg>