<?xml version="1.0" encoding="utf-8"?>
<!-- Generator: Adobe Illustrator 15.0.0, SVG Export Plug-In . SVG Version: 6.00 Build 0)  -->
<!DOCTYPE svg PUBLIC "-//W3C//DTD SVG 1.1//EN" "http://www.w3.org/Graphics/SVG/1.1/DTD/svg11.dtd">
<svg version="1.1" id="Capa_1" xmlns="http://www.w3.org/2000/svg" xmlns:xlink="http://www.w3.org/1999/xlink" x="0px" y="0px"
	 width="49.109px" height="49.351px" viewBox="397.026 270.64 49.109 49.351" enable-background="new 397.026 270.64 49.109 49.351"
	 xml:space="preserve">
<g>
	<g>
		<circle fill="#36B294" cx="421.945" cy="295.64" r="25"/>
	</g>
	<g>
		<path fill="#52C883" d="M429.255,271.729c-2.961,1.035,0.083,2.432-1.843,3.338c-2.212,1.042-2.177,2.426-2.604,2.865l6.218,2.12
			c0,0,6.938,0.372,10.859,0.513C438.746,276.42,434.347,273.284,429.255,271.729z"/>
	</g>
	<g>
		<path fill="#36B294" d="M441.886,280.565c-1.49-1.968-3.271-3.699-5.269-5.15c-1.831,0.327-4.663-0.966-6.152-0.258
			c-0.812,0.385-1.147,1.342-1.147,1.342s4.314,2.312,7.493,3.846C438.579,280.429,440.438,280.513,441.886,280.565z"/>
	</g>
	<g>
		<path fill="#52C883" d="M402.528,279.897c0.123,0.053,0.255,0.096,0.406,0.118c2.149,0.326,16.257-1.612,16.257-1.612
			c0.214-1.448,0.15-2.279-1.283-2.938c-1.432-0.659-1.302-1.831-2.409-2.352c-0.411-0.193-1.513-0.458-2.763-0.715
			C408.718,273.993,405.209,276.594,402.528,279.897z"/>
	</g>
	<g>
		<path fill="#36B294" d="M402.651,279.756c0.303,0.014,0.671-0.005,1.129-0.066c3.45-0.456,10.972-3.688,10.972-3.688
			c-0.933-0.456-1.255-1.659-2.33-1.479c-1.327,0.221-3.249,0.509-4.353,0.338C406.033,276.222,404.205,277.869,402.651,279.756z"/>
	</g>
	<g>
		<path fill="#B3F4EF" d="M398.15,303.315c3.24,10.051,12.666,17.325,23.794,17.325s20.555-7.274,23.795-17.325H398.15
			L398.15,303.315z"/>
	</g>
	<g>
		<polygon fill="#745154" points="425.042,303.453 424.703,288.584 424.284,278.453 		"/>
	</g>
	<g>
		<path fill="#745154" d="M428.325,277.281c-1.628,0.854-3.627-0.521-3.627,1.123l0.005,10.18l-0.04,14.889l5.188,1.934
			l-1.657,1.953h10.938l6.701-4.33c0.722-2.335,1.111-4.816,1.111-7.389c0-6.778-2.701-12.922-7.081-17.425
			C436.501,277.426,430.53,276.124,428.325,277.281z"/>
	</g>
	<g>
		<path fill="#86646A" d="M439.864,278.216c-3.362-0.79-8.544-3.913-10.889-2.106c-2.258,1.742-4.276,0.651-4.276,2.294v0.105
			c0.416,1.167,1.225,2.332,2.128,2.092c1.661-0.439,1.423-2.132,2.638-2.588c1.562-0.585,1.562,1.661,2.636,2.283
			c1.17,0.678-1.854,6.848-1.073,7.372c1.107,0.741,2.269-2.198,3.76-3.551c1.491-1.353,2.685-0.437,3.809,0
			c2.14,0.83,2.14-1.465,4.648-1.554C442.275,280.991,441.144,279.531,439.864,278.216z"/>
	</g>
	<g>
		<polyline fill="#745154" points="424.663,303.472 425.59,305.406 428.195,307.359 		"/>
	</g>
	<g>
		<path fill="#674447" d="M446.945,295.64c0-0.726-0.037-1.442-0.098-2.152l-1.465-0.191c-1.855,0-3.134-2.344-4.688-2.344
			c-2.669,0-3.516,4.101-5.839,3.652c-0.683-0.132-1.364-0.444-2.035-0.82c-1.646-0.922-5.113,3.027-7.778,3.027l-0.364,1.504
			l-0.015,5.156l5.188,1.934l-1.11,1.309l1.406,0.645h8.984l6.701-4.33C446.555,300.694,446.945,298.213,446.945,295.64z"/>
	</g>
	<g>
		<g>
			<polygon fill="#745154" points="418.847,303.453 419.186,288.584 419.605,278.453 			"/>
		</g>
		<g>
			<path fill="#745154" d="M414.913,276.109c2.018,1.433,4.277,0.488,4.277,2.294l-0.005,10.18l0.04,14.869l9.1,2.279l-8.464,1.627
				h-15.104l-6.702-4.33c-0.721-2.335-1.111-4.816-1.111-7.389c0-6.778,2.701-12.922,7.082-17.425
				C407.387,277.426,412.056,274.081,414.913,276.109z"/>
		</g>
	</g>
	<g>
		<path fill="#674447" d="M419.226,303.453l-0.02-7.531l-0.386-0.281c-2.344,0-3.303-3.854-6.25-4.688
			c-2.995-0.847-5.251,3.261-5.924,2.344c-0.383-0.521,2.066-7.031-1.107-7.031c-2.827,0-4.167-3.409-4.167-3.409l-0.354-0.886
			c-2.573,3.928-4.073,8.623-4.073,13.67c0,0.277,0.022,0.548,0.031,0.823c2.743,2.874,10.26,10.667,10.45,10.896
			c0.245,0.293,6.511-0.098,6.511-0.098s4.053-1.563,4.639-1.845c0.179-0.088,0.489-0.872,0.833-1.919L419.226,303.453z"/>
	</g>
	<g>
		<g>
			<path fill="#FFFFFF" d="M428.195,302.671c-0.203,0-0.406-0.085-0.555-0.225c-0.141-0.149-0.228-0.354-0.228-0.556
				c0-0.204,0.087-0.406,0.228-0.555c0.289-0.29,0.812-0.29,1.11,0c0.14,0.148,0.225,0.351,0.225,0.555
				c0,0.202-0.085,0.406-0.225,0.556C428.6,302.586,428.397,302.671,428.195,302.671z"/>
		</g>
	</g>
	<g>
		<g>
			<path fill="#FFFFFF" d="M431.027,303.447c-0.203,0-0.406-0.085-0.555-0.226c-0.142-0.147-0.227-0.353-0.227-0.555
				c0-0.204,0.085-0.406,0.227-0.555c0.289-0.289,0.812-0.289,1.108,0c0.142,0.148,0.228,0.351,0.228,0.555
				c0,0.202-0.086,0.407-0.228,0.555C431.433,303.362,431.23,303.447,431.027,303.447z"/>
		</g>
	</g>
	<g>
		<g>
			<path fill="#FFFFFF" d="M416.281,303.057c-0.203,0-0.407-0.086-0.555-0.227c-0.141-0.148-0.226-0.352-0.226-0.555
				s0.085-0.406,0.226-0.555c0.29-0.289,0.813-0.289,1.11,0c0.14,0.148,0.227,0.352,0.227,0.555s-0.086,0.406-0.227,0.555
				C416.686,302.971,416.483,303.057,416.281,303.057z"/>
		</g>
	</g>
	<g>
		<g>
			<path fill="#FFFFFF" d="M432.1,305.792c-0.202,0-0.406-0.086-0.554-0.227c-0.141-0.148-0.227-0.352-0.227-0.556
				c0-0.202,0.086-0.405,0.227-0.554c0.289-0.289,0.812-0.289,1.109,0c0.141,0.148,0.227,0.352,0.227,0.554
				c0,0.204-0.086,0.407-0.227,0.556C432.507,305.706,432.304,305.792,432.1,305.792z"/>
		</g>
	</g>
	<g>
		<g>
			<path fill="#FFFFFF" d="M413.595,304.61c-0.203,0-0.406-0.086-0.555-0.228c-0.141-0.147-0.227-0.351-0.227-0.554
				s0.086-0.406,0.227-0.555c0.289-0.289,0.812-0.289,1.109,0c0.14,0.148,0.227,0.352,0.227,0.555s-0.086,0.406-0.227,0.554
				C414.001,304.524,413.798,304.61,413.595,304.61z"/>
		</g>
	</g>
	<g>
		<path fill="#86646A" d="M405.538,279.234c0.472,0.288,1,2.913,1.221,2.436c1.419-3.071,3.574-0.738,6.592-3.217
			c1.367-1.123,3.288,0.928,3.971,1.806c1.101,1.415-0.504,7.032,2.087,11.154l-0.218-13.009c0-1.806-2.259-0.862-4.277-2.294
			c-2.858-2.028-7.526,1.317-10.887,2.106c-0.262,0.269-0.518,0.545-0.767,0.826C404.496,279.155,405.05,278.936,405.538,279.234z"
			/>
	</g>
	<g>
		<polygon fill="#DDF9FF" points="424.698,278.404 419.191,278.404 418.299,305.015 425.59,305.015 		"/>
	</g>
	<g>
		<path fill="#FFFFFF" d="M430.538,307.359c0-1.726-1.399-3.125-3.126-3.125c-0.24,0-0.473,0.033-0.698,0.085
			c-0.669-0.533-1.504-0.866-2.426-0.866c-0.715,0-1.377,0.206-1.953,0.542c-0.576-0.336-1.238-0.542-1.953-0.542
			c-1.448,0-2.697,0.797-3.372,1.968c-0.375-0.255-0.828-0.405-1.315-0.405c-1.294,0-2.344,1.049-2.344,2.344"/>
	</g>
	<g>
		<path fill="#86646A" d="M417.322,310.485c0,0-0.26-2.084-2.946-2.304c-2.856-0.235-2.588-2.785-5.257-4.738
			c-0.853-0.625-2.983-1.551-4.362-3.897c-1.807-3.075-4.736-2.733-7.731-5.839c-0.049,0.64-0.082,1.282-0.082,1.934
			c0,5.559,1.816,10.692,4.885,14.845C406.722,310.485,415.494,310.485,417.322,310.485z"/>
	</g>
	<g>
		<path fill="#674447" d="M407.858,302.919c0.111-0.027,0.205-0.059,0.303-0.088c-1.016-0.635-2.405-1.584-3.404-3.285
			c-1.733-2.949-4.499-2.764-7.363-5.482l-0.416,0.424c-0.02,0.383-0.034,0.766-0.034,1.153c0,1.482,0.138,2.932,0.386,4.343
			c1.759-0.061,3.76-0.53,4.277-0.07C402.267,300.499,405.05,303.603,407.858,302.919z"/>
	</g>
	<g>
		<path fill="#86646A" d="M437.83,308.181c-0.635,1.112-1.801,2.628-3.859,2.628c-5.762,0-8.121,3.581-8.121,3.581h12.622
			c3.672-3.239,6.388-7.537,7.663-12.419C441.107,302.512,439.491,305.261,437.83,308.181z"/>
	</g>
	<g>
		<path fill="#674447" d="M445.476,304.068c-0.855-0.146-2.017-0.235-2.698-0.159c-0.511,0.056-1.757,0.636-2.997,1.27
			c-0.752,0.915-1.35,1.946-1.95,3.002c-0.387,0.679-0.975,1.503-1.837,2.046l-0.001,0.003c1.662,1.236,4.758-1.355,7.395-1.758
			C444.22,307.086,444.922,305.613,445.476,304.068z"/>
	</g>
	<g>
		<path fill="#52C883" d="M408.177,302.842C408.177,302.842,408.177,302.842,408.177,302.842c-1.017-0.635-2.416-1.586-3.42-3.296
			c-1.807-3.075-4.736-2.733-7.731-5.839c-0.049,0.64-0.082,1.282-0.082,1.934c0,0.799,0.048,1.587,0.121,2.368
			c1.514,0.949,3.203,0.239,4.762,1.148C403.39,300.067,405.216,303.468,408.177,302.842z"/>
	</g>
	<g>
		<path fill="#674447" d="M411.097,308.969c-2.189,0-3.963,1.29-3.963,2.881h7.926C415.06,310.26,413.285,308.969,411.097,308.969z"
			/>
	</g>
	<g>
		<path fill="#86646A" d="M422.289,312.388c-1.521,0-2.753,0.896-2.753,2.002h5.506
			C425.042,313.285,423.809,312.388,422.289,312.388z"/>
	</g>
	<g>
		<path fill="#86646A" d="M419.536,313.099c-0.98,0-1.774,0.578-1.774,1.291h3.549C421.311,313.677,420.517,313.099,419.536,313.099
			z"/>
	</g>
	<g>
		<path fill="#674447" d="M406.263,309.646c-1.272,0-2.304,0.75-2.304,1.676h4.606C408.566,310.396,407.534,309.646,406.263,309.646
			z"/>
	</g>
	<g>
		<path fill="#674447" d="M435.026,312.949c-2.772,0-5.018,1.634-5.018,3.649h5.543c1.128-0.733,2.188-1.556,3.179-2.456
			C437.813,313.412,436.494,312.949,435.026,312.949z"/>
	</g>
	<g>
		<path fill="#52C883" d="M437.83,308.181c-0.388,0.679-0.976,1.504-1.841,2.047c0.002,0.001,0.002,0.001,0.003,0.001
			c2.281,0.622,4.883-3.968,8.36-3.53c0.742-1.499,1.351-3.076,1.782-4.728C441.107,302.512,439.491,305.261,437.83,308.181z"/>
	</g>
	<g>
		<path fill="#AEE1F9" d="M424.698,278.404h-5.508l-0.589,17.565c1.715-1.25,1.911-12.373,2.822-11.657
			c0.912,0.716,0.391,5.646,1.172,5.646s0.804-7.536,2.29-5.972l0,0L424.698,278.404z"/>
	</g>
</g>
</svg>
